<svg version="1.1" viewBox="0.0 0.0 960.0 540.0" fill="none" stroke="none" stroke-linecap="square" stroke-miterlimit="10" xmlns:xlink="http://www.w3.org/1999/xlink" xmlns="http://www.w3.org/2000/svg"><clipPath id="g14d49d92f02_0_220.0"><path d="m0 0l960.0 0l0 540.0l-960.0 0l0 -540.0z" clip-rule="nonzero"/></clipPath><g clip-path="url(#g14d49d92f02_0_220.0)"><path fill="#ffffff" d="m0 0l960.0 0l0 540.0l-960.0 0z" fill-rule="evenodd"/><path fill="#f5f2f0" d="m0 213.44882l960.0 0l0 113.102356l-960.0 0z" fill-rule="evenodd"/><path fill="#000000" d="m17.359375 239.50945l-0.984375 1.0l-6.125 -5.109375l6.125 -5.109375l0.984375 1.015625l-4.96875 4.078125l4.96875 4.125z" fill-rule="nonzero"/><path fill="#000000" d="m28.163544 237.65007q0 0.78125 -0.359375 1.34375q-0.34375 0.5625 -0.921875 0.921875q-0.578125 0.34375 -1.3125 0.5q-0.734375 0.15625 -1.5 0.15625q-1.015625 0 -1.84375 -0.09375q-0.8125 -0.09375 -1.546875 -0.265625l0 -2.015625q0.859375 0.359375 1.703125 0.515625q0.859375 0.15625 1.609375 0.15625q0.875 0 1.3125 -0.265625q0.4375 -0.28125 0.4375 -0.734375q0 -0.203125 -0.09375 -0.375q-0.09375 -0.171875 -0.34375 -0.328125q-0.25 -0.171875 -0.71875 -0.328125q-0.453125 -0.171875 -1.1875 -0.390625q-0.671875 -0.1875 -1.1875 -0.421875q-0.515625 -0.25 -0.859375 -0.578125q-0.328125 -0.328125 -0.5 -0.75q-0.171875 -0.4375 -0.171875 -1.03125q0 -0.5625 0.25 -1.0625q0.265625 -0.5 0.765625 -0.875q0.5 -0.375 1.25 -0.59375q0.765625 -0.21875 1.78125 -0.21875q0.875 0 1.546875 0.09375q0.671875 0.078125 1.1875 0.1875l0 1.828125q-0.78125 -0.265625 -1.484375 -0.359375q-0.703125 -0.109375 -1.375 -0.109375q-0.6875 0 -1.109375 0.25q-0.40625 0.234375 -0.40625 0.671875q0 0.21875 0.078125 0.390625q0.078125 0.15625 0.3125 0.3125q0.25 0.140625 0.6875 0.3125q0.4375 0.171875 1.140625 0.375q0.796875 0.21875 1.34375 0.484375q0.546875 0.265625 0.875 0.59375q0.34375 0.328125 0.484375 0.75q0.15625 0.40625 0.15625 0.953125zm10.101044 2.359375q-0.65625 0.265625 -1.359375 0.390625q-0.6875 0.125 -1.453125 0.125q-1.109375 0 -1.984375 -0.296875q-0.875 -0.296875 -1.484375 -0.890625q-0.609375 -0.59375 -0.9375 -1.46875q-0.3125 -0.875 -0.3125 -2.015625q0 -1.109375 0.34375 -2.015625q0.34375 -0.90625 0.984375 -1.53125q0.640625 -0.640625 1.53125 -0.984375q0.90625 -0.359375 2.0 -0.359375q0.90625 0 1.515625 0.109375q0.625 0.09375 1.109375 0.234375l0 2.15625q-0.5625 -0.28125 -1.21875 -0.4375q-0.65625 -0.15625 -1.25 -0.15625q-0.625 0 -1.125 0.21875q-0.484375 0.203125 -0.828125 0.578125q-0.328125 0.375 -0.515625 0.90625q-0.171875 0.53125 -0.171875 1.171875q0 0.65625 0.1875 1.1875q0.203125 0.53125 0.546875 0.90625q0.359375 0.359375 0.84375 0.5625q0.5 0.1875 1.09375 0.1875q0.296875 0 0.609375 -0.03125q0.328125 -0.046875 0.65625 -0.125q0.328125 -0.078125 0.640625 -0.171875q0.3125 -0.109375 0.578125 -0.21875l0 1.96875zm8.726044 -5.296875q0.015625 -0.515625 -0.046875 -0.875q-0.0625 -0.375 -0.21875 -0.609375q-0.140625 -0.234375 -0.359375 -0.34375q-0.21875 -0.109375 -0.515625 -0.109375q-0.484375 0 -1.015625 0.40625q-0.515625 0.40625 -1.140625 1.328125l0 5.859375l-2.28125 0l0 -9.25l2.015625 0l0.078125 1.34375q0.234375 -0.359375 0.515625 -0.640625q0.28125 -0.28125 0.625 -0.484375q0.359375 -0.203125 0.78125 -0.3125q0.4375 -0.109375 0.953125 -0.109375q0.703125 0 1.234375 0.25q0.546875 0.234375 0.90625 0.703125q0.375 0.46875 0.546875 1.1875q0.1875 0.71875 0.15625 1.65625l-2.234375 0zm9.757294 -6.125q0 0.296875 -0.109375 0.5625q-0.109375 0.265625 -0.3125 0.46875q-0.1875 0.1875 -0.453125 0.296875q-0.265625 0.109375 -0.578125 0.109375q-0.3125 0 -0.578125 -0.109375q-0.265625 -0.109375 -0.46875 -0.296875q-0.1875 -0.203125 -0.296875 -0.46875q-0.109375 -0.265625 -0.109375 -0.5625q0 -0.3125 0.109375 -0.5625q0.109375 -0.265625 0.296875 -0.46875q0.203125 -0.203125 0.46875 -0.3125q0.265625 -0.125 0.578125 -0.125q0.3125 0 0.578125 0.125q0.265625 0.109375 0.453125 0.3125q0.203125 0.203125 0.3125 0.46875q0.109375 0.25 0.109375 0.5625zm-2.46875 4.25l-2.609375 0l0 -1.71875l4.890625 0l0 7.515625l2.671875 0l0 1.734375l-7.875 0l0 -1.734375l2.921875 0l0 -5.796875zm15.601044 2.734375q0 1.28125 -0.359375 2.21875q-0.359375 0.921875 -1.0 1.546875q-0.640625 0.609375 -1.515625 0.90625q-0.875 0.28125 -1.90625 0.28125q-0.34375 0 -0.703125 -0.046875q-0.34375 -0.03125 -0.625 -0.109375l0 3.609375l-2.21875 0l0 -12.859375l1.921875 0l0.0625 1.359375q0.28125 -0.359375 0.578125 -0.640625q0.3125 -0.296875 0.65625 -0.5q0.359375 -0.203125 0.765625 -0.3125q0.421875 -0.109375 0.921875 -0.109375q0.828125 0 1.453125 0.328125q0.640625 0.328125 1.078125 0.9375q0.4375 0.59375 0.65625 1.46875q0.234375 0.859375 0.234375 1.921875zm-2.328125 0.09375q0 -0.765625 -0.109375 -1.296875q-0.109375 -0.546875 -0.328125 -0.890625q-0.203125 -0.34375 -0.5 -0.5q-0.28125 -0.15625 -0.671875 -0.15625q-0.5625 0 -1.078125 0.453125q-0.515625 0.453125 -1.09375 1.234375l0 4.046875q0.265625 0.09375 0.65625 0.171875q0.390625 0.0625 0.78125 0.0625q0.53125 0 0.96875 -0.21875q0.4375 -0.21875 0.734375 -0.625q0.3125 -0.40625 0.46875 -0.984375q0.171875 -0.578125 0.171875 -1.296875zm11.897919 4.609375q-0.609375 0.140625 -1.21875 0.21875q-0.609375 0.078125 -1.15625 0.078125q-0.90625 0 -1.578125 -0.1875q-0.65625 -0.1875 -1.09375 -0.578125q-0.421875 -0.390625 -0.625 -1.0q-0.203125 -0.609375 -0.203125 -1.4375l0 -4.53125l-2.5 0l0 -1.71875l2.5 0l0 -2.375l2.265625 -0.59375l0 2.96875l3.609375 0l0 1.71875l-3.609375 0l0 4.359375q0 0.796875 0.359375 1.203125q0.375 0.40625 1.234375 0.40625q0.546875 0 1.0625 -0.09375q0.515625 -0.09375 0.953125 -0.21875l0 1.78125z" fill-rule="nonzero"/><path fill="#000000" d="m99.886475 240.24382q-0.53125 0.140625 -1.109375 0.1875q-0.578125 0.0625 -1.171875 0.0625q-1.71875 0 -2.5625 -0.78125q-0.84375 -0.78125 -0.84375 -2.390625l0 -4.765625l-2.5625 0l0 -1.328125l2.5625 0l0 -2.515625l1.578125 -0.40625l0 2.921875l4.109375 0l0 1.328125l-4.109375 0l0 4.640625q0 0.984375 0.515625 1.46875q0.53125 0.484375 1.546875 0.484375q0.4375 0 0.953125 -0.0625q0.53125 -0.0625 1.09375 -0.21875l0 1.375zm11.022919 -9.015625l-3.109375 8.171875q-0.484375 1.25 -1.0 2.15625q-0.515625 0.90625 -1.125 1.484375q-0.609375 0.578125 -1.34375 0.84375q-0.734375 0.28125 -1.625 0.28125q-0.25 0 -0.4375 -0.015625q-0.1875 -0.015625 -0.421875 -0.03125l0 -1.4375q0.203125 0.03125 0.4375 0.046875q0.25 0.03125 0.5 0.03125q0.4375 0 0.8125 -0.140625q0.390625 -0.125 0.71875 -0.40625q0.34375 -0.28125 0.65625 -0.75q0.3125 -0.453125 0.59375 -1.09375l-3.65625 -9.140625l1.8125 0l2.3125 6.046875l0.46875 1.421875l0.53125 -1.46875l2.140625 -6.0l1.734375 0zm9.944794 4.40625q0 1.21875 -0.34375 2.140625q-0.34375 0.90625 -0.953125 1.515625q-0.59375 0.59375 -1.421875 0.890625q-0.8125 0.296875 -1.765625 0.296875q-0.4375 0 -0.875 -0.046875q-0.4375 -0.046875 -0.875 -0.15625l0 3.828125l-1.59375 0l0 -12.875l1.421875 0l0.09375 1.53125q0.6875 -0.9375 1.453125 -1.3125q0.78125 -0.390625 1.6875 -0.390625q0.78125 0 1.375 0.328125q0.59375 0.328125 0.984375 0.9375q0.40625 0.59375 0.609375 1.4375q0.203125 0.828125 0.203125 1.875zm-1.625 0.0625q0 -0.71875 -0.109375 -1.3125q-0.109375 -0.609375 -0.34375 -1.03125q-0.21875 -0.421875 -0.578125 -0.65625q-0.34375 -0.25 -0.84375 -0.25q-0.296875 0 -0.609375 0.09375q-0.3125 0.09375 -0.640625 0.328125q-0.328125 0.21875 -0.703125 0.59375q-0.359375 0.359375 -0.78125 0.90625l0 4.4375q0.4375 0.171875 0.921875 0.28125q0.484375 0.109375 0.9375 0.109375q1.28125 0 2.015625 -0.875q0.734375 -0.875 0.734375 -2.625zm11.788544 -0.390625q0 0.34375 -0.015625 0.578125q0 0.21875 -0.03125 0.421875l-6.421875 0q0 1.40625 0.78125 2.15625q0.796875 0.75 2.265625 0.75q0.40625 0 0.796875 -0.03125q0.40625 -0.03125 0.78125 -0.078125q0.375 -0.0625 0.71875 -0.125q0.34375 -0.078125 0.625 -0.15625l0 1.296875q-0.640625 0.1875 -1.46875 0.296875q-0.8125 0.109375 -1.6875 0.109375q-1.171875 0 -2.015625 -0.3125q-0.84375 -0.3125 -1.390625 -0.921875q-0.546875 -0.609375 -0.8125 -1.484375q-0.25 -0.875 -0.25 -2.0q0 -0.953125 0.28125 -1.8125q0.28125 -0.859375 0.8125 -1.515625q0.53125 -0.65625 1.296875 -1.03125q0.78125 -0.390625 1.765625 -0.390625q0.953125 0 1.6875 0.3125q0.75 0.296875 1.25 0.84375q0.5 0.546875 0.765625 1.34375q0.265625 0.78125 0.265625 1.75zm-1.65625 -0.21875q0.03125 -0.609375 -0.125 -1.109375q-0.140625 -0.515625 -0.453125 -0.875q-0.296875 -0.375 -0.75 -0.578125q-0.453125 -0.203125 -1.0625 -0.203125q-0.515625 0 -0.953125 0.203125q-0.421875 0.203125 -0.734375 0.5625q-0.296875 0.359375 -0.5 0.875q-0.1875 0.515625 -0.234375 1.125l4.8125 0zm11.772919 -0.609375l-7.828125 0l0 -1.328125l7.828125 0l0 1.328125zm0 3.171875l-7.828125 0l0 -1.328125l7.828125 0l0 1.328125zm5.5697937 -10.15625l-0.25 4.28125l-1.5 0l-0.265625 -4.28125l2.015625 0zm3.546875 0l-0.25 4.28125l-1.5 0l-0.265625 -4.28125l2.015625 0zm11.179169 12.75q-0.53125 0.140625 -1.109375 0.1875q-0.578125 0.0625 -1.171875 0.0625q-1.71875 0 -2.5625 -0.78125q-0.84375 -0.78125 -0.84375 -2.390625l0 -4.765625l-2.5625 0l0 -1.328125l2.5625 0l0 -2.515625l1.578125 -0.40625l0 2.921875l4.109375 0l0 1.328125l-4.109375 0l0 4.640625q0 0.984375 0.515625 1.46875q0.53125 0.484375 1.546875 0.484375q0.4375 0 0.953125 -0.0625q0.53125 -0.0625 1.09375 -0.21875l0 1.375zm10.616669 -4.9375q0 0.34375 -0.015625 0.578125q0 0.21875 -0.03125 0.421875l-6.421875 0q0 1.40625 0.78125 2.15625q0.796875 0.75 2.265625 0.75q0.40625 0 0.796875 -0.03125q0.40625 -0.03125 0.78125 -0.078125q0.375 -0.0625 0.71875 -0.125q0.34375 -0.078125 0.625 -0.15625l0 1.296875q-0.640625 0.1875 -1.46875 0.296875q-0.8125 0.109375 -1.6875 0.109375q-1.171875 0 -2.015625 -0.3125q-0.84375 -0.3125 -1.390625 -0.921875q-0.546875 -0.609375 -0.8125 -1.484375q-0.25 -0.875 -0.25 -2.0q0 -0.953125 0.28125 -1.8125q0.28125 -0.859375 0.8125 -1.515625q0.53125 -0.65625 1.296875 -1.03125q0.78125 -0.390625 1.765625 -0.390625q0.953125 0 1.6875 0.3125q0.75 0.296875 1.25 0.84375q0.5 0.546875 0.765625 1.34375q0.265625 0.78125 0.265625 1.75zm-1.65625 -0.21875q0.03125 -0.609375 -0.125 -1.109375q-0.140625 -0.515625 -0.453125 -0.875q-0.296875 -0.375 -0.75 -0.578125q-0.453125 -0.203125 -1.0625 -0.203125q-0.515625 0 -0.953125 0.203125q-0.421875 0.203125 -0.734375 0.5625q-0.296875 0.359375 -0.5 0.875q-0.1875 0.515625 -0.234375 1.125l4.8125 0zm12.429169 5.28125l-2.109375 0l-2.46875 -3.484375l-2.4375 3.484375l-2.046875 0l3.546875 -4.59375l-3.390625 -4.546875l2.03125 0l2.40625 3.515625l2.359375 -3.515625l1.96875 0l-3.4375 4.578125l3.578125 4.5625zm9.382294 -0.125q-0.53125 0.140625 -1.109375 0.1875q-0.578125 0.0625 -1.171875 0.0625q-1.71875 0 -2.5625 -0.78125q-0.84375 -0.78125 -0.84375 -2.390625l0 -4.765625l-2.5625 0l0 -1.328125l2.5625 0l0 -2.515625l1.578125 -0.40625l0 2.921875l4.109375 0l0 1.328125l-4.109375 0l0 4.640625q0 0.984375 0.515625 1.46875q0.53125 0.484375 1.546875 0.484375q0.4375 0 0.953125 -0.0625q0.53125 -0.0625 1.09375 -0.21875l0 1.375zm10.241669 -12.75l-6.25 14.828125l-1.515625 0l6.25 -14.828125l1.515625 0zm10.272919 12.75q-0.53125 0.140625 -1.109375 0.1875q-0.578125 0.0625 -1.171875 0.0625q-1.71875 0 -2.5625 -0.78125q-0.84375 -0.78125 -0.84375 -2.390625l0 -4.765625l-2.5625 0l0 -1.328125l2.5625 0l0 -2.515625l1.578125 -0.40625l0 2.921875l4.109375 0l0 1.328125l-4.109375 0l0 4.640625q0 0.984375 0.515625 1.46875q0.53125 0.484375 1.546875 0.484375q0.4375 0 0.953125 -0.0625q0.53125 -0.0625 1.09375 -0.21875l0 1.375zm10.241669 0.125l-1.421875 0l-0.0625 -1.46875q-0.40625 0.46875 -0.78125 0.78125q-0.359375 0.3125 -0.734375 0.515625q-0.359375 0.1875 -0.734375 0.25q-0.359375 0.078125 -0.765625 0.078125q-1.421875 0 -2.140625 -0.828125q-0.71875 -0.828125 -0.71875 -2.5l0 -5.96875l1.59375 0l0 5.84375q0 2.109375 1.578125 2.109375q0.296875 0 0.5625 -0.078125q0.28125 -0.09375 0.578125 -0.3125q0.3125 -0.21875 0.65625 -0.578125q0.359375 -0.359375 0.796875 -0.921875l0 -6.0625l1.59375 0l0 9.140625zm3.2729187 -9.140625l1.453125 0l0.046875 1.6875q0.8125 -0.984375 1.59375 -1.421875q0.796875 -0.4375 1.59375 -0.4375q1.421875 0 2.15625 0.921875q0.734375 0.921875 0.671875 2.734375l-1.59375 0q0.015625 -1.203125 -0.359375 -1.734375q-0.375 -0.546875 -1.109375 -0.546875q-0.3125 0 -0.640625 0.109375q-0.328125 0.109375 -0.671875 0.359375q-0.328125 0.25 -0.71875 0.640625q-0.375 0.390625 -0.8125 0.953125l0 5.875l-1.609375 0l0 -9.140625zm17.257294 9.015625q-0.53125 0.140625 -1.109375 0.1875q-0.578125 0.0625 -1.171875 0.0625q-1.71875 0 -2.5625 -0.78125q-0.84375 -0.78125 -0.84375 -2.390625l0 -4.765625l-2.5625 0l0 -1.328125l2.5625 0l0 -2.515625l1.578125 -0.40625l0 2.921875l4.109375 0l0 1.328125l-4.109375 0l0 4.640625q0 0.984375 0.515625 1.46875q0.53125 0.484375 1.546875 0.484375q0.4375 0 0.953125 -0.0625q0.53125 -0.0625 1.09375 -0.21875l0 1.375zm6.0072937 -11.4375l-2.703125 0l0 -1.3125l4.296875 0l0 11.546875l2.734375 0l0 1.328125l-7.34375 0l0 -1.328125l3.015625 0l0 -10.234375zm14.866669 6.5q0 0.34375 -0.015625 0.578125q0 0.21875 -0.03125 0.421875l-6.421875 0q0 1.40625 0.78125 2.15625q0.796875 0.75 2.265625 0.75q0.40625 0 0.796875 -0.03125q0.40625 -0.03125 0.78125 -0.078125q0.375 -0.0625 0.71875 -0.125q0.34375 -0.078125 0.625 -0.15625l0 1.296875q-0.640625 0.1875 -1.46875 0.296875q-0.8125 0.109375 -1.6875 0.109375q-1.171875 0 -2.015625 -0.3125q-0.84375 -0.3125 -1.390625 -0.921875q-0.546875 -0.609375 -0.8125 -1.484375q-0.25 -0.875 -0.25 -2.0q0 -0.953125 0.28125 -1.8125q0.28125 -0.859375 0.8125 -1.515625q0.53125 -0.65625 1.296875 -1.03125q0.78125 -0.390625 1.765625 -0.390625q0.953125 0 1.6875 0.3125q0.75 0.296875 1.25 0.84375q0.5 0.546875 0.765625 1.34375q0.265625 0.78125 0.265625 1.75zm-1.65625 -0.21875q0.03125 -0.609375 -0.125 -1.109375q-0.140625 -0.515625 -0.453125 -0.875q-0.296875 -0.375 -0.75 -0.578125q-0.453125 -0.203125 -1.0625 -0.203125q-0.515625 0 -0.953125 0.203125q-0.421875 0.203125 -0.734375 0.5625q-0.296875 0.359375 -0.5 0.875q-0.1875 0.515625 -0.234375 1.125l4.8125 0zm7.0854187 -7.59375l-0.25 4.28125l-1.5 0l-0.265625 -4.28125l2.015625 0zm3.546875 0l-0.25 4.28125l-1.5 0l-0.265625 -4.28125l2.015625 0zm4.2572937 3.8125l0.984375 -1.015625l6.125 5.109375l-6.125 5.109375l-0.984375 -1.0l4.96875 -4.09375l-4.96875 -4.109375z" fill-rule="nonzero"/><path fill="#f5f2f0" d="m9.0 244.84882l483.82812 0l0 24.0l-483.82812 0l0 -24.0z" fill-rule="nonzero"/><path fill="#000000" fill-opacity="0.0" d="m9.0 249.1953l87.96875 0l0 23.417984l-87.96875 0l0 -23.417984z" fill-rule="nonzero"/><path fill="#222222" d="m16.625 260.06445q-0.09375 0.625 -0.109375 1.03125q0 0.40625 0.0625 0.640625q0.0625 0.234375 0.1875 0.328125q0.140625 0.09375 0.34375 0.09375q0.28125 0 0.515625 -0.28125q0.25 -0.296875 0.4375 -0.890625q0.203125 -0.59375 0.3125 -1.515625q0.109375 -0.921875 0.109375 -2.1875q0 -1.4062653 -0.1875 -2.5000153q-0.171875 -1.109375 -0.546875 -1.875q-0.375 -0.78125 -0.984375 -1.171875q-0.609375 -0.40625 -1.484375 -0.40625q-0.671875 0 -1.296875 0.34375q-0.609375 0.328125 -1.140625 0.9375q-0.53125 0.609375 -0.96875 1.46875q-0.4375 0.84375 -0.75 1.890625q-0.296875 1.0312653 -0.46875 2.2187653q-0.171875 1.1875 -0.171875 2.484375q0 3.140625 0.9375 4.6875q0.953125 1.546875 2.671875 1.546875q0.875 0 1.625 -0.203125q0.75 -0.1875 1.5625 -0.59375l0 1.265625q-0.796875 0.359375 -1.609375 0.546875q-0.796875 0.1875 -1.671875 0.1875q-2.484375 0 -3.6875 -1.875q-1.1875 -1.859375 -1.21875 -5.546875q0 -1.46875 0.203125 -2.828125q0.203125 -1.359375 0.578125 -2.5312653q0.390625 -1.171875 0.9375 -2.125q0.5625 -0.96875 1.25 -1.640625q0.703125 -0.6875 1.515625 -1.0625q0.828125 -0.375 1.765625 -0.375q1.15625 0 2.0 0.484375q0.859375 0.46875 1.421875 1.359375q0.5625 0.890625 0.828125 2.203125q0.265625 1.296875 0.265625 2.9531403q-0.015625 1.671875 -0.21875 2.875q-0.203125 1.1875 -0.59375 1.953125q-0.375 0.765625 -0.921875 1.125q-0.546875 0.359375 -1.203125 0.359375q-0.765625 0 -1.140625 -0.390625q-0.359375 -0.390625 -0.359375 -1.0625q-0.375 0.75 -0.8125 1.109375q-0.421875 0.34375 -1.03125 0.34375q-0.921875 0 -1.375 -0.6875q-0.453125 -0.703125 -0.453125 -2.1875q0 -0.53125 0.0625 -1.140625q0.0625 -0.625 0.203125 -1.234375q0.15625 -0.625 0.390625 -1.1875q0.25 -0.578125 0.609375 -1.0156403q0.359375 -0.4375 0.84375 -0.703125q0.5 -0.265625 1.125 -0.265625q0.359375 0 0.6875 0.09375q0.328125 0.09375 0.46875 0.171875l1.265625 -0.296875l-0.78125 5.0781403zm-1.0 -3.484375q-0.09375 -0.109375 -0.28125 -0.203125q-0.171875 -0.09375 -0.4375 -0.09375q-0.296875 0 -0.53125 0.203125q-0.234375 0.203125 -0.421875 0.546875q-0.171875 0.34375 -0.296875 0.78125q-0.125 0.4375 -0.21875 0.890625q-0.078125 0.453125 -0.109375 0.90625q-0.03125 0.4375 -0.03125 0.796875q0 0.9375 0.109375 1.34375q0.125 0.40625 0.453125 0.40625q0.125 0 0.234375 -0.046875q0.125 -0.046875 0.25 -0.1875q0.140625 -0.140625 0.296875 -0.390625q0.15625 -0.265625 0.34375 -0.671875l0.640625 -4.28125zm14.308594 2.390625q0 1.3125 -0.375 2.296875q-0.359375 0.96875 -1.0 1.609375q-0.640625 0.640625 -1.53125 0.96875q-0.875 0.328125 -1.890625 0.328125q-0.46875 0 -0.9375 -0.0625q-0.46875 -0.046875 -0.9375 -0.15625l0 4.09375l-1.703125 0l0 -13.812515l1.515625 0l0.109375 1.640625q0.734375 -1.0 1.5625 -1.40625q0.828125 -0.40625 1.796875 -0.40625q0.84375 0 1.46875 0.359375q0.640625 0.34375 1.0625 0.984375q0.4375 0.64064026 0.640625 1.5468903q0.21875 0.90625 0.21875 2.015625zm-1.734375 0.078125q0 -0.765625 -0.109375 -1.40625q-0.109375 -0.65625 -0.359375 -1.109375q-0.25 -0.46875 -0.625 -0.71876526q-0.375 -0.265625 -0.90625 -0.265625q-0.328125 0 -0.65625 0.109375q-0.328125 0.09375 -0.6875 0.34376526q-0.359375 0.234375 -0.75 0.640625q-0.390625 0.390625 -0.84375 0.96875l0 4.75q0.46875 0.203125 0.984375 0.3125q0.515625 0.109375 1.015625 0.109375q1.375 0 2.15625 -0.921875q0.78125 -0.9375 0.78125 -2.8125zm4.7617188 -4.8125153l1.546875 0l0.046875 1.8125153q0.875 -1.0468903 1.71875 -1.5156403q0.84375 -0.46875 1.703125 -0.46875q1.515625 0 2.296875 0.984375q0.796875 0.98439026 0.734375 2.9375153l-1.71875 0q0.03125 -1.296875 -0.375 -1.875q-0.40625 -0.57814026 -1.1875 -0.57814026q-0.34375 0 -0.6875 0.125q-0.34375 0.125 -0.71875 0.39064026q-0.359375 0.265625 -0.765625 0.6875q-0.40625 0.421875 -0.875 1.015625l0 6.296875l-1.71875 0l0 -9.812515zm18.871094 4.3906403q0 0.359375 -0.015625 0.609375q0 0.234375 -0.015625 0.453125l-6.890625 0q0 1.5 0.828125 2.3125q0.84375 0.8125 2.4375 0.8125q0.421875 0 0.84375 -0.03125q0.4375 -0.046875 0.828125 -0.09375q0.40625 -0.0625 0.765625 -0.140625q0.375 -0.078125 0.6875 -0.15625l0 1.390625q-0.6875 0.203125 -1.5625 0.3125q-0.875 0.125 -1.8125 0.125q-1.265625 0 -2.171875 -0.34375q-0.90625 -0.34375 -1.484375 -0.984375q-0.578125 -0.65625 -0.859375 -1.59375q-0.28125 -0.9375 -0.28125 -2.140625q0 -1.03125 0.296875 -1.953125q0.296875 -0.921875 0.859375 -1.6093903q0.578125 -0.703125 1.40625 -1.109375q0.84375 -0.421875 1.890625 -0.421875q1.03125 0 1.8125 0.328125q0.796875 0.3125 1.328125 0.90625q0.546875 0.59375 0.828125 1.4375153q0.28125 0.84375 0.28125 1.890625zm-1.765625 -0.25q0.03125 -0.640625 -0.125 -1.1875q-0.15625 -0.546875 -0.484375 -0.9375q-0.328125 -0.39064026 -0.828125 -0.60939026q-0.484375 -0.21875 -1.125 -0.21875q-0.546875 0 -1.015625 0.21875q-0.453125 0.21875 -0.796875 0.60939026q-0.328125 0.390625 -0.53125 0.9375q-0.203125 0.546875 -0.25 1.1875l5.15625 0zm13.183594 -6.5468903q-1.34375 -0.28125 -2.3125 -0.28125q-2.28125 0 -2.28125 2.40625l0 1.71875l4.296875 0l0 1.4062653l-4.296875 0l0 6.96875l-1.734375 0l0 -6.96875l-3.15625 0l0 -1.4062653l3.15625 0l0 -1.625q0 -3.921875 4.078125 -3.921875q1.015625 0 2.25 0.234375l0 1.46875zm-10.265625 2.40625l0 0zm15.902344 1.40625l-2.90625 0l0 -1.40625l4.625 0l0 8.39064l2.921875 0l0 1.421875l-7.859375 0l0 -1.421875l3.21875 0l0 -6.9843903zm0.59375 -5.515625q0.28125 0 0.515625 0.109375q0.25 0.09375 0.421875 0.28125q0.1875 0.1875 0.296875 0.4375q0.109375 0.234375 0.109375 0.515625q0 0.265625 -0.109375 0.515625q-0.109375 0.25 -0.296875 0.4375q-0.171875 0.171875 -0.421875 0.28125q-0.234375 0.109375 -0.515625 0.109375q-0.28125 0 -0.53125 -0.109375q-0.234375 -0.109375 -0.421875 -0.28125q-0.1875 -0.1875 -0.296875 -0.4375q-0.09375 -0.25 -0.09375 -0.515625q0 -0.28125 0.09375 -0.515625q0.109375 -0.25 0.296875 -0.4375q0.1875 -0.1875 0.421875 -0.28125q0.25 -0.109375 0.53125 -0.109375zm15.902344 13.92189l-2.265625 0l-2.640625 -3.734375l-2.625 3.734375l-2.1875 0l3.796875 -4.921875l-3.625 -4.8906403l2.171875 0l2.578125 3.7812653l2.53125 -3.7812653l2.109375 0l-3.6875 4.9218903l3.84375 4.890625z" fill-rule="nonzero"/><path fill="#010000" fill-opacity="0.0" d="m96.96875 249.1953l54.98047 0l0 23.417984l-54.98047 0l0 -23.417984z" fill-rule="nonzero"/><path fill="#0077aa" d="m107.234375 251.83006q-1.34375 -0.28125 -2.3125 -0.28125q-2.28125 0 -2.28125 2.40625l0 1.71875l4.296875 0l0 1.4062653l-4.296875 0l0 6.96875l-1.734375 0l0 -6.96875l-3.15625 0l0 -1.4062653l3.15625 0l0 -1.625q0 -3.921875 4.078125 -3.921875q1.015625 0 2.25 0.234375l0 1.46875zm-10.265625 2.40625l0 0zm21.089844 4.8281403q0 1.140625 -0.328125 2.09375q-0.3125 0.953125 -0.921875 1.640625q-0.59375 0.671875 -1.46875 1.046875q-0.875 0.375 -1.96875 0.375q-1.0625 0 -1.90625 -0.328125q-0.828125 -0.328125 -1.40625 -0.953125q-0.578125 -0.640625 -0.890625 -1.578125q-0.296875 -0.9375 -0.296875 -2.15625q0 -1.140625 0.3125 -2.078125q0.328125 -0.953125 0.921875 -1.6250153q0.609375 -0.6875 1.484375 -1.0625q0.875 -0.375 1.96875 -0.375q1.0625 0 1.890625 0.328125q0.84375 0.328125 1.421875 0.96875q0.578125 0.625 0.875 1.5625153q0.3125 0.9375 0.3125 2.140625zm-1.734375 0.078125q0 -0.90625 -0.203125 -1.578125q-0.203125 -0.6875 -0.578125 -1.140625q-0.359375 -0.45314026 -0.890625 -0.67189026q-0.53125 -0.234375 -1.1875 -0.234375q-0.765625 0 -1.3125 0.296875q-0.53125 0.29689026 -0.890625 0.79689026q-0.34375 0.5 -0.5 1.15625q-0.15625 0.65625 -0.15625 1.375q0 0.90625 0.1875 1.59375q0.203125 0.6875 0.578125 1.140625q0.375 0.453125 0.890625 0.6875q0.53125 0.21875 1.203125 0.21875q0.765625 0 1.296875 -0.296875q0.546875 -0.296875 0.890625 -0.796875q0.34375 -0.5 0.5 -1.15625q0.171875 -0.65625 0.171875 -1.390625zm10.496094 4.90625l-0.03125 -1.3125q-0.8125 0.78125 -1.640625 1.140625q-0.8125 0.34375 -1.71875 0.34375q-0.84375 0 -1.4375 -0.203125q-0.59375 -0.21875 -0.984375 -0.59375q-0.390625 -0.375 -0.578125 -0.875q-0.171875 -0.515625 -0.171875 -1.125q0 -1.46875 1.09375 -2.296875q1.109375 -0.84375 3.25 -0.84375l2.03125 0l0 -0.859375q0 -0.859375 -0.5625 -1.375q-0.546875 -0.53126526 -1.6875 -0.53126526q-0.828125 0 -1.640625 0.1875q-0.796875 0.171875 -1.65625 0.51564026l0 -1.5312653q0.3125 -0.109375 0.703125 -0.21875q0.40625 -0.125 0.84375 -0.203125q0.4375 -0.09375 0.90625 -0.140625q0.484375 -0.0625 0.984375 -0.0625q0.890625 0 1.59375 0.203125q0.71875 0.1875 1.203125 0.59375q0.5 0.390625 0.765625 1.0q0.265625 0.60939026 0.265625 1.4218903l0 6.765625l-1.53125 0zm-0.1875 -4.46875l-2.15625 0q-0.625 0 -1.09375 0.140625q-0.453125 0.125 -0.75 0.359375q-0.296875 0.234375 -0.4375 0.5625q-0.140625 0.3125 -0.140625 0.734375q0 0.28125 0.078125 0.546875q0.09375 0.25 0.28125 0.453125q0.203125 0.203125 0.515625 0.328125q0.3125 0.109375 0.765625 0.109375q0.59375 0 1.34375 -0.359375q0.765625 -0.359375 1.59375 -1.125l0 -1.75zm13.589844 -7.7500153q-1.34375 -0.28125 -2.3125 -0.28125q-2.28125 0 -2.28125 2.40625l0 1.71875l4.296875 0l0 1.4062653l-4.296875 0l0 6.96875l-1.734375 0l0 -6.96875l-3.15625 0l0 -1.4062653l3.15625 0l0 -1.625q0 -3.921875 4.078125 -3.921875q1.015625 0 2.25 0.234375l0 1.46875zm-10.265625 2.40625l0 0zm16.496094 -0.171875q0.296875 0 0.5625 0.125q0.28125 0.125 0.484375 0.328125q0.21875 0.203125 0.328125 0.484375q0.125 0.265625 0.125 0.5625q0 0.3125 -0.125 0.59376526q-0.109375 0.265625 -0.328125 0.46875q-0.203125 0.203125 -0.484375 0.328125q-0.265625 0.109375 -0.5625 0.109375q-0.3125 0 -0.578125 -0.109375q-0.265625 -0.125 -0.484375 -0.328125q-0.203125 -0.203125 -0.328125 -0.46875q-0.109375 -0.28126526 -0.109375 -0.59376526q0 -0.296875 0.109375 -0.5625q0.125 -0.28125 0.328125 -0.484375q0.21875 -0.203125 0.484375 -0.328125q0.265625 -0.125 0.578125 -0.125zm0 7.1562653q0.296875 0 0.5625 0.125q0.28125 0.125 0.484375 0.328125q0.21875 0.203125 0.328125 0.484375q0.125 0.265625 0.125 0.578125q0 0.3125 -0.125 0.578125q-0.109375 0.265625 -0.328125 0.46875q-0.203125 0.203125 -0.484375 0.3125q-0.265625 0.125 -0.5625 0.125q-0.3125 0 -0.578125 -0.125q-0.265625 -0.109375 -0.484375 -0.3125q-0.203125 -0.203125 -0.328125 -0.46875q-0.109375 -0.265625 -0.109375 -0.578125q0 -0.3125 0.109375 -0.578125q0.125 -0.28125 0.328125 -0.484375q0.21875 -0.203125 0.484375 -0.328125q0.265625 -0.125 0.578125 -0.125z" fill-rule="nonzero"/><path fill="#000000" fill-opacity="0.0" d="m151.94922 249.1953l329.8828 0l0 23.417984l-329.8828 0l0 -23.417984z" fill-rule="nonzero"/><path fill="#222222" d="m171.91406 263.12695l-1.0625 1.078125l-6.5625 -5.484375l6.5625 -5.4687653l1.0625 1.078125l-5.328125 4.3750153l5.328125 4.421875zm11.464844 0.921875l-1.6875 0l0 -6.265625q0 -1.125 -0.4375 -1.6875q-0.421875 -0.56251526 -1.203125 -0.56251526q-0.34375 0 -0.640625 0.09375q-0.296875 0.09375 -0.625 0.328125q-0.328125 0.21876526 -0.703125 0.60939026q-0.375 0.390625 -0.875 0.984375l0 6.5l-1.703125 0l0 -13.79689l1.703125 0l0 3.984375l-0.0625 1.546875q0.40625 -0.46875 0.78125 -0.796875q0.390625 -0.328125 0.765625 -0.53125q0.390625 -0.21875 0.796875 -0.296875q0.40625 -0.09375 0.828125 -0.09375q1.46875 0 2.265625 0.90625q0.796875 0.890625 0.796875 2.6875153l0 6.390625zm11.027344 -0.140625q-0.578125 0.15625 -1.203125 0.21875q-0.609375 0.0625 -1.25 0.0625q-1.84375 0 -2.75 -0.828125q-0.90625 -0.84375 -0.90625 -2.578125l0 -5.1093903l-2.75 0l0 -1.4375l2.75 0l0 -2.6875l1.703125 -0.4375l0 3.125l4.40625 0l0 1.4375l-4.40625 0l0 4.9687653q0 1.0625 0.5625 1.59375q0.5625 0.515625 1.65625 0.515625q0.46875 0 1.015625 -0.078125q0.5625 -0.078125 1.171875 -0.234375l0 1.46875zm10.996094 0q-0.578125 0.15625 -1.203125 0.21875q-0.609375 0.0625 -1.25 0.0625q-1.84375 0 -2.75 -0.828125q-0.90625 -0.84375 -0.90625 -2.578125l0 -5.1093903l-2.75 0l0 -1.4375l2.75 0l0 -2.6875l1.703125 -0.4375l0 3.125l4.40625 0l0 1.4375l-4.40625 0l0 4.9687653q0 1.0625 0.5625 1.59375q0.5625 0.515625 1.65625 0.515625q0.46875 0 1.015625 -0.078125q0.5625 -0.078125 1.171875 -0.234375l0 1.46875zm11.464844 -4.9375q0 1.3125 -0.375 2.296875q-0.359375 0.96875 -1.0 1.609375q-0.640625 0.640625 -1.53125 0.96875q-0.875 0.328125 -1.890625 0.328125q-0.46875 0 -0.9375 -0.0625q-0.46875 -0.046875 -0.9375 -0.15625l0 4.09375l-1.703125 0l0 -13.812515l1.515625 0l0.109375 1.640625q0.734375 -1.0 1.5625 -1.40625q0.828125 -0.40625 1.796875 -0.40625q0.84375 0 1.46875 0.359375q0.640625 0.34375 1.0625 0.984375q0.4375 0.64064026 0.640625 1.5468903q0.21875 0.90625 0.21875 2.015625zm-1.734375 0.078125q0 -0.765625 -0.109375 -1.40625q-0.109375 -0.65625 -0.359375 -1.109375q-0.25 -0.46875 -0.625 -0.71876526q-0.375 -0.265625 -0.90625 -0.265625q-0.328125 0 -0.65625 0.109375q-0.328125 0.09375 -0.6875 0.34376526q-0.359375 0.234375 -0.75 0.640625q-0.390625 0.390625 -0.84375 0.96875l0 4.75q0.46875 0.203125 0.984375 0.3125q0.515625 0.109375 1.015625 0.109375q1.375 0 2.15625 -0.921875q0.78125 -0.9375 0.78125 -2.8125zm8.292969 -4.9843903q0.296875 0 0.5625 0.125q0.28125 0.125 0.484375 0.328125q0.21875 0.203125 0.328125 0.484375q0.125 0.265625 0.125 0.5625q0 0.3125 -0.125 0.59376526q-0.109375 0.265625 -0.328125 0.46875q-0.203125 0.203125 -0.484375 0.328125q-0.265625 0.109375 -0.5625 0.109375q-0.3125 0 -0.578125 -0.109375q-0.265625 -0.125 -0.484375 -0.328125q-0.203125 -0.203125 -0.328125 -0.46875q-0.109375 -0.28126526 -0.109375 -0.59376526q0 -0.296875 0.109375 -0.5625q0.125 -0.28125 0.328125 -0.484375q0.21875 -0.203125 0.484375 -0.328125q0.265625 -0.125 0.578125 -0.125zm0 7.1562653q0.296875 0 0.5625 0.125q0.28125 0.125 0.484375 0.328125q0.21875 0.203125 0.328125 0.484375q0.125 0.265625 0.125 0.578125q0 0.3125 -0.125 0.578125q-0.109375 0.265625 -0.328125 0.46875q-0.203125 0.203125 -0.484375 0.3125q-0.265625 0.125 -0.5625 0.125q-0.3125 0 -0.578125 -0.125q-0.265625 -0.109375 -0.484375 -0.3125q-0.203125 -0.203125 -0.328125 -0.46875q-0.109375 -0.265625 -0.109375 -0.578125q0 -0.3125 0.109375 -0.578125q0.125 -0.28125 0.328125 -0.484375q0.21875 -0.203125 0.484375 -0.328125q0.265625 -0.125 0.578125 -0.125zm14.933594 -10.968765l-6.6875 15.89064l-1.625 0l6.703125 -15.89064l1.609375 0zm10.996094 0l-6.6875 15.89064l-1.625 0l6.703125 -15.89064l1.609375 0zm11.964844 13.79689l-2.265625 0l-2.640625 -3.734375l-2.625 3.734375l-2.1875 0l3.796875 -4.921875l-3.625 -4.8906403l2.171875 0l2.578125 3.7812653l2.53125 -3.7812653l2.109375 0l-3.6875 4.9218903l3.84375 4.890625zm9.152344 0l0 -7.046875q0 -0.453125 -0.046875 -0.75q-0.03125 -0.29689026 -0.109375 -0.45314026q-0.0625 -0.171875 -0.1875 -0.234375q-0.109375 -0.078125 -0.265625 -0.078125q-0.203125 0 -0.375 0.125q-0.15625 0.109375 -0.34375 0.375q-0.1875 0.26564026 -0.421875 0.70314026q-0.234375 0.421875 -0.546875 1.0625l0 6.296875l-1.546875 0l0 -6.859375q0 -0.53125 -0.03125 -0.859375q-0.03125 -0.34376526 -0.109375 -0.51564026q-0.078125 -0.1875 -0.203125 -0.25q-0.109375 -0.078125 -0.265625 -0.078125q-0.1875 0 -0.34375 0.09375q-0.15625 0.09375 -0.34375 0.359375q-0.1875 0.25001526 -0.421875 0.68751526q-0.234375 0.4375 -0.5625 1.125l0 6.296875l-1.5625 0l0 -9.812515l1.296875 0l0.078125 1.8750153q0.265625 -0.56251526 0.5 -0.95314026q0.234375 -0.390625 0.484375 -0.625q0.265625 -0.234375 0.546875 -0.34375q0.296875 -0.125 0.640625 -0.125q0.796875 0 1.203125 0.515625q0.40625 0.515625 0.40625 1.6093903q0.234375 -0.51564026 0.453125 -0.90626526q0.234375 -0.390625 0.484375 -0.65625q0.265625 -0.28125 0.578125 -0.421875q0.3125 -0.140625 0.71875 -0.140625q1.859375 0 1.859375 2.8437653l0 7.140625l-1.5625 0zm7.3398438 -12.406265l-2.90625 0l0 -1.390625l4.625 0l0 12.375015l2.921875 0l0 1.421875l-7.859375 0l0 -1.421875l3.21875 0l0 -10.98439zm7.6523438 2.59375l1.515625 0l0.0625 1.59375q0.4375 -0.515625 0.828125 -0.84375q0.40625 -0.34375 0.78125 -0.546875q0.390625 -0.203125 0.796875 -0.28125q0.40625 -0.09375 0.828125 -0.09375q1.515625 0 2.28125 0.90625q0.78125 0.890625 0.78125 2.6875153l0 6.390625l-1.6875 0l0 -6.265625q0 -1.140625 -0.4375 -1.6875q-0.421875 -0.56251526 -1.28125 -0.56251526q-0.3125 0 -0.609375 0.09375q-0.296875 0.09375 -0.625 0.328125q-0.3125 0.21876526 -0.6875 0.60939026q-0.375 0.390625 -0.84375 0.984375l0 6.5l-1.703125 0l0 -9.812515zm18.761719 7.1406403q0 0.515625 -0.1875 0.921875q-0.171875 0.40625 -0.46875 0.734375q-0.296875 0.3125 -0.703125 0.546875q-0.40625 0.21875 -0.859375 0.375q-0.453125 0.140625 -0.9375 0.203125q-0.46875 0.0625 -0.921875 0.0625q-1.0 0 -1.84375 -0.09375q-0.828125 -0.078125 -1.625 -0.28125l0 -1.5625q0.859375 0.25 1.703125 0.375q0.859375 0.125 1.6875 0.125q1.21875 0 1.796875 -0.328125q0.59375 -0.328125 0.59375 -0.953125q0 -0.25 -0.09375 -0.453125q-0.078125 -0.21875 -0.328125 -0.40625q-0.25 -0.203125 -0.765625 -0.40625q-0.5 -0.203125 -1.390625 -0.46875q-0.671875 -0.1875 -1.234375 -0.4375q-0.5625 -0.25 -0.96875 -0.59375q-0.40625 -0.34375 -0.640625 -0.796875q-0.234375 -0.46875 -0.234375 -1.09375q0 -0.40625 0.1875 -0.89064026q0.1875 -0.484375 0.640625 -0.90625q0.46875 -0.421875 1.25 -0.703125q0.78125 -0.28125 1.953125 -0.28125q0.578125 0 1.28125 0.0625q0.703125 0.0625 1.46875 0.21875l0 1.515625q-0.8125 -0.1875 -1.53125 -0.28125q-0.703125 -0.09375 -1.234375 -0.09375q-0.640625 0 -1.078125 0.09375q-0.421875 0.09375 -0.703125 0.265625q-0.265625 0.17189026 -0.390625 0.40626526q-0.109375 0.234375 -0.109375 0.484375q0 0.265625 0.09375 0.484375q0.109375 0.21875 0.390625 0.421875q0.28125 0.1875 0.78125 0.390625q0.5 0.203125 1.296875 0.4375q0.875 0.25 1.46875 0.53125q0.59375 0.28125 0.953125 0.625q0.375 0.34375 0.53125 0.78125q0.171875 0.421875 0.171875 0.96875zm7.0898438 -0.40625q0.328125 0 0.625 0.125q0.296875 0.125 0.515625 0.359375q0.21875 0.21875 0.34375 0.515625q0.140625 0.296875 0.140625 0.640625q0 0.328125 -0.140625 0.625q-0.125 0.296875 -0.34375 0.515625q-0.21875 0.21875 -0.515625 0.34375q-0.296875 0.125 -0.625 0.125q-0.34375 0 -0.640625 -0.125q-0.28125 -0.125 -0.515625 -0.34375q-0.21875 -0.21875 -0.34375 -0.515625q-0.125 -0.296875 -0.125 -0.625q0 -0.34375 0.125 -0.640625q0.125 -0.296875 0.34375 -0.515625q0.234375 -0.234375 0.515625 -0.359375q0.296875 -0.125 0.640625 -0.125zm14.761719 2.71875q-0.671875 0.25 -1.375 0.375q-0.6875 0.125 -1.4375 0.125q-2.328125 0 -3.578125 -1.265625q-1.25 -1.265625 -1.25 -3.6875q0 -1.15625 0.359375 -2.09375q0.359375 -0.953125 1.015625 -1.6250153q0.65625 -0.671875 1.5625 -1.03125q0.90625 -0.375 2.0 -0.375q0.765625 0 1.421875 0.109375q0.671875 0.09375 1.28125 0.34375l0 1.6250153q-0.640625 -0.32814026 -1.296875 -0.48439026q-0.65625 -0.15625 -1.359375 -0.15625q-0.65625 0 -1.25 0.25q-0.578125 0.25001526 -1.015625 0.71876526q-0.4375 0.46875 -0.6875 1.140625q-0.25 0.671875 -0.25 1.53125q0 1.765625 0.859375 2.65625q0.859375 0.890625 2.390625 0.890625q0.703125 0 1.34375 -0.15625q0.65625 -0.15625 1.265625 -0.46875l0 1.578125zm11.902344 -4.625q0 1.140625 -0.328125 2.09375q-0.3125 0.953125 -0.921875 1.640625q-0.59375 0.671875 -1.46875 1.046875q-0.875 0.375 -1.96875 0.375q-1.0625 0 -1.90625 -0.328125q-0.828125 -0.328125 -1.40625 -0.953125q-0.578125 -0.640625 -0.890625 -1.578125q-0.296875 -0.9375 -0.296875 -2.15625q0 -1.140625 0.3125 -2.078125q0.328125 -0.953125 0.921875 -1.6250153q0.609375 -0.6875 1.484375 -1.0625q0.875 -0.375 1.96875 -0.375q1.0625 0 1.890625 0.328125q0.84375 0.328125 1.421875 0.96875q0.578125 0.625 0.875 1.5625153q0.3125 0.9375 0.3125 2.140625zm-1.734375 0.078125q0 -0.90625 -0.203125 -1.578125q-0.203125 -0.6875 -0.578125 -1.140625q-0.359375 -0.45314026 -0.890625 -0.67189026q-0.53125 -0.234375 -1.1875 -0.234375q-0.765625 0 -1.3125 0.296875q-0.53125 0.29689026 -0.890625 0.79689026q-0.34375 0.5 -0.5 1.15625q-0.15625 0.65625 -0.15625 1.375q0 0.90625 0.1875 1.59375q0.203125 0.6875 0.578125 1.140625q0.375 0.453125 0.890625 0.6875q0.53125 0.21875 1.203125 0.21875q0.765625 0 1.296875 -0.296875q0.546875 -0.296875 0.890625 -0.796875q0.34375 -0.5 0.5 -1.15625q0.171875 -0.65625 0.171875 -1.390625zm11.199219 4.90625l0 -7.046875q0 -0.453125 -0.046875 -0.75q-0.03125 -0.29689026 -0.109375 -0.45314026q-0.0625 -0.171875 -0.1875 -0.234375q-0.109375 -0.078125 -0.265625 -0.078125q-0.203125 0 -0.375 0.125q-0.15625 0.109375 -0.34375 0.375q-0.1875 0.26564026 -0.421875 0.70314026q-0.234375 0.421875 -0.546875 1.0625l0 6.296875l-1.546875 0l0 -6.859375q0 -0.53125 -0.03125 -0.859375q-0.03125 -0.34376526 -0.109375 -0.51564026q-0.078125 -0.1875 -0.203125 -0.25q-0.109375 -0.078125 -0.265625 -0.078125q-0.1875 0 -0.34375 0.09375q-0.15625 0.09375 -0.34375 0.359375q-0.1875 0.25001526 -0.421875 0.68751526q-0.234375 0.4375 -0.5625 1.125l0 6.296875l-1.5625 0l0 -9.812515l1.296875 0l0.078125 1.8750153q0.265625 -0.56251526 0.5 -0.95314026q0.234375 -0.390625 0.484375 -0.625q0.265625 -0.234375 0.546875 -0.34375q0.296875 -0.125 0.640625 -0.125q0.796875 0 1.203125 0.515625q0.40625 0.515625 0.40625 1.6093903q0.234375 -0.51564026 0.453125 -0.90626526q0.234375 -0.390625 0.484375 -0.65625q0.265625 -0.28125 0.578125 -0.421875q0.3125 -0.140625 0.71875 -0.140625q1.859375 0 1.859375 2.8437653l0 7.140625l-1.5625 0zm11.871094 -13.79689l-6.6875 15.89064l-1.625 0l6.703125 -15.89064l1.609375 0zm11.824219 1.578125q-1.34375 -0.28125 -2.3125 -0.28125q-2.28125 0 -2.28125 2.40625l0 1.71875l4.296875 0l0 1.4062653l-4.296875 0l0 6.96875l-1.734375 0l0 -6.96875l-3.15625 0l0 -1.4062653l3.15625 0l0 -1.625q0 -3.921875 4.078125 -3.921875q1.015625 0 2.25 0.234375l0 1.46875zm-10.265625 2.40625l0 0zm21.089844 4.8281403q0 1.140625 -0.328125 2.09375q-0.3125 0.953125 -0.921875 1.640625q-0.59375 0.671875 -1.46875 1.046875q-0.875 0.375 -1.96875 0.375q-1.0625 0 -1.90625 -0.328125q-0.828125 -0.328125 -1.40625 -0.953125q-0.578125 -0.640625 -0.890625 -1.578125q-0.296875 -0.9375 -0.296875 -2.15625q0 -1.140625 0.3125 -2.078125q0.328125 -0.953125 0.921875 -1.6250153q0.609375 -0.6875 1.484375 -1.0625q0.875 -0.375 1.96875 -0.375q1.0625 0 1.890625 0.328125q0.84375 0.328125 1.421875 0.96875q0.578125 0.625 0.875 1.5625153q0.3125 0.9375 0.3125 2.140625zm-1.734375 0.078125q0 -0.90625 -0.203125 -1.578125q-0.203125 -0.6875 -0.578125 -1.140625q-0.359375 -0.45314026 -0.890625 -0.67189026q-0.53125 -0.234375 -1.1875 -0.234375q-0.765625 0 -1.3125 0.296875q-0.53125 0.29689026 -0.890625 0.79689026q-0.34375 0.5 -0.5 1.15625q-0.15625 0.65625 -0.15625 1.375q0 0.90625 0.1875 1.59375q0.203125 0.6875 0.578125 1.140625q0.375 0.453125 0.890625 0.6875q0.53125 0.21875 1.203125 0.21875q0.765625 0 1.296875 -0.296875q0.546875 -0.296875 0.890625 -0.796875q0.34375 -0.5 0.5 -1.15625q0.171875 -0.65625 0.171875 -1.390625zm10.496094 4.90625l-0.03125 -1.3125q-0.8125 0.78125 -1.640625 1.140625q-0.8125 0.34375 -1.71875 0.34375q-0.84375 0 -1.4375 -0.203125q-0.59375 -0.21875 -0.984375 -0.59375q-0.390625 -0.375 -0.578125 -0.875q-0.171875 -0.515625 -0.171875 -1.125q0 -1.46875 1.09375 -2.296875q1.109375 -0.84375 3.25 -0.84375l2.03125 0l0 -0.859375q0 -0.859375 -0.5625 -1.375q-0.546875 -0.53126526 -1.6875 -0.53126526q-0.828125 0 -1.640625 0.1875q-0.796875 0.171875 -1.65625 0.51564026l0 -1.5312653q0.3125 -0.109375 0.703125 -0.21875q0.40625 -0.125 0.84375 -0.203125q0.4375 -0.09375 0.90625 -0.140625q0.484375 -0.0625 0.984375 -0.0625q0.890625 0 1.59375 0.203125q0.71875 0.1875 1.203125 0.59375q0.5 0.390625 0.765625 1.0q0.265625 0.60939026 0.265625 1.4218903l0 6.765625l-1.53125 0zm-0.1875 -4.46875l-2.15625 0q-0.625 0 -1.09375 0.140625q-0.453125 0.125 -0.75 0.359375q-0.296875 0.234375 -0.4375 0.5625q-0.140625 0.3125 -0.140625 0.734375q0 0.28125 0.078125 0.546875q0.09375 0.25 0.28125 0.453125q0.203125 0.203125 0.515625 0.328125q0.3125 0.109375 0.765625 0.109375q0.59375 0 1.34375 -0.359375q0.765625 -0.359375 1.59375 -1.125l0 -1.75zm13.589844 -7.7500153q-1.34375 -0.28125 -2.3125 -0.28125q-2.28125 0 -2.28125 2.40625l0 1.71875l4.296875 0l0 1.4062653l-4.296875 0l0 6.96875l-1.734375 0l0 -6.96875l-3.15625 0l0 -1.4062653l3.15625 0l0 -1.625q0 -3.921875 4.078125 -3.921875q1.015625 0 2.25 0.234375l0 1.46875zm-10.265625 2.40625l0 0zm20.433594 -3.984375l-6.6875 15.89064l-1.625 0l6.703125 -15.89064l1.609375 0zm11.699219 7.4218903q0 1.46875 -0.296875 2.671875q-0.296875 1.203125 -0.890625 2.078125q-0.59375 0.859375 -1.484375 1.328125q-0.875 0.46875 -2.0625 0.46875q-1.03125 0 -1.875 -0.375q-0.828125 -0.390625 -1.4375 -1.1875q-0.59375 -0.8125 -0.921875 -2.046875q-0.3125 -1.234375 -0.3125 -2.9375q0 -1.46875 0.296875 -2.6718903q0.296875 -1.21875 0.890625 -2.078125q0.59375 -0.875 1.484375 -1.34375q0.890625 -0.46875 2.0625 -0.46875q1.03125 0 1.859375 0.390625q0.84375 0.375 1.4375 1.1875q0.609375 0.796875 0.921875 2.046875q0.328125 1.234375 0.328125 2.9375153zm-1.71875 0.0625q0 -0.34375 -0.03125 -0.671875q-0.015625 -0.328125 -0.046875 -0.640625l-5.40625 4.015625q0.15625 0.515625 0.375 0.953125q0.21875 0.421875 0.53125 0.734375q0.328125 0.296875 0.734375 0.46875q0.40625 0.171875 0.921875 0.171875q0.65625 0 1.203125 -0.3125q0.546875 -0.328125 0.921875 -0.953125q0.390625 -0.640625 0.59375 -1.578125q0.203125 -0.953125 0.203125 -2.1875zm-5.84375 -0.125q0 0.296875 0 0.609375q0.015625 0.296875 0.046875 0.578125l5.390625 -3.9843903q-0.140625 -0.5 -0.375 -0.90625q-0.21875 -0.421875 -0.53125 -0.71875q-0.3125 -0.296875 -0.71875 -0.453125q-0.390625 -0.171875 -0.890625 -0.171875q-0.671875 0 -1.21875 0.328125q-0.53125 0.3125 -0.921875 0.953125q-0.375 0.640625 -0.578125 1.59375q-0.203125 0.93751526 -0.203125 2.1718903zm13.839844 3.359375q0.328125 0 0.625 0.125q0.296875 0.125 0.515625 0.359375q0.21875 0.21875 0.34375 0.515625q0.140625 0.296875 0.140625 0.640625q0 0.328125 -0.140625 0.625q-0.125 0.296875 -0.34375 0.515625q-0.21875 0.21875 -0.515625 0.34375q-0.296875 0.125 -0.625 0.125q-0.34375 0 -0.640625 -0.125q-0.28125 -0.125 -0.515625 -0.34375q-0.21875 -0.21875 -0.34375 -0.515625q-0.125 -0.296875 -0.125 -0.625q0 -0.34375 0.125 -0.640625q0.125 -0.296875 0.34375 -0.515625q0.234375 -0.234375 0.515625 -0.359375q0.296875 -0.125 0.640625 -0.125zm15.308594 3.078125l-8.015625 0l0 -1.578125l3.28125 0l0 -9.32814l-3.0625 1.671875l-0.625 -1.453125l4.0625 -2.140625l1.515625 0l0 11.250015l2.84375 0l0 1.578125zm10.699219 -13.79689l-6.6875 15.89064l-1.625 0l6.703125 -15.89064l1.609375 0zm3.6054688 4.078125l1.046875 -1.078125l6.5625 5.4687653l-6.5625 5.484375l-1.046875 -1.078125l5.3125 -4.375l-5.3125 -4.4218903z" fill-rule="nonzero"/><path fill="#010000" fill-opacity="0.0" d="m481.83203 249.1953l10.996094 0l0 23.417984l-10.996094 0l0 -23.417984z" fill-rule="nonzero"/><path fill="#999999" d="m487.2539 260.9707q0.328125 0 0.625 0.125q0.296875 0.125 0.515625 0.359375q0.21875 0.21875 0.34375 0.515625q0.140625 0.296875 0.140625 0.640625q0 0.328125 -0.140625 0.625q-0.125 0.296875 -0.34375 0.515625q-0.21875 0.21875 -0.515625 0.34375q-0.296875 0.125 -0.625 0.125q-0.34375 0 -0.640625 -0.125q-0.28125 -0.125 -0.515625 -0.34375q-0.21875 -0.21875 -0.34375 -0.515625q-0.125 -0.296875 -0.125 -0.625q0 -0.34375 0.125 -0.640625q0.125 -0.296875 0.34375 -0.515625q0.234375 -0.234375 0.515625 -0.359375q0.296875 -0.125 0.640625 -0.125z" fill-rule="nonzero"/><path fill="#000000" fill-opacity="0.0" d="m492.82812 249.1953l0 0l0 23.417984l0 0l0 -23.417984z" fill-rule="nonzero"/><path fill="#f5f2f0" d="m9.0 268.84882l516.8164 0l0 24.0l-516.8164 0l0 -24.0z" fill-rule="nonzero"/><path fill="#000000" fill-opacity="0.0" d="m9.0 273.1953l340.8789 0l0 23.417969l-340.8789 0l0 -23.417969z" fill-rule="nonzero"/><path fill="#222222" d="m17.96875 287.12695l-1.0625 1.078125l-6.5625 -5.484375l6.5625 -5.46875l1.0625 1.078125l-5.328125 4.375l5.328125 4.421875zm11.464844 0.921875l-1.6875 0l0 -6.265625q0 -1.125 -0.4375 -1.6875q-0.421875 -0.5625 -1.203125 -0.5625q-0.34375 0 -0.640625 0.09375q-0.296875 0.09375 -0.625 0.328125q-0.328125 0.21875 -0.703125 0.609375q-0.375 0.390625 -0.875 0.984375l0 6.5l-1.703125 0l0 -13.796875l1.703125 0l0 3.984375l-0.0625 1.546875q0.40625 -0.46875 0.78125 -0.796875q0.390625 -0.328125 0.765625 -0.53125q0.390625 -0.21875 0.796875 -0.296875q0.40625 -0.09375 0.828125 -0.09375q1.46875 0 2.265625 0.90625q0.796875 0.890625 0.796875 2.6875l0 6.390625zm11.027344 -0.140625q-0.578125 0.15625 -1.203125 0.21875q-0.609375 0.0625 -1.25 0.0625q-1.84375 0 -2.75 -0.828125q-0.90625 -0.84375 -0.90625 -2.578125l0 -5.109375l-2.75 0l0 -1.4375l2.75 0l0 -2.6875l1.703125 -0.4375l0 3.125l4.40625 0l0 1.4375l-4.40625 0l0 4.96875q0 1.0625 0.5625 1.59375q0.5625 0.515625 1.65625 0.515625q0.46875 0 1.015625 -0.078125q0.5625 -0.078125 1.171875 -0.234375l0 1.46875zm10.996094 0q-0.578125 0.15625 -1.203125 0.21875q-0.609375 0.0625 -1.25 0.0625q-1.84375 0 -2.75 -0.828125q-0.90625 -0.84375 -0.90625 -2.578125l0 -5.109375l-2.75 0l0 -1.4375l2.75 0l0 -2.6875l1.703125 -0.4375l0 3.125l4.40625 0l0 1.4375l-4.40625 0l0 4.96875q0 1.0625 0.5625 1.59375q0.5625 0.515625 1.65625 0.515625q0.46875 0 1.015625 -0.078125q0.5625 -0.078125 1.171875 -0.234375l0 1.46875zm11.464844 -4.9375q0 1.3125 -0.375 2.296875q-0.359375 0.96875 -1.0 1.609375q-0.640625 0.640625 -1.53125 0.96875q-0.875 0.328125 -1.890625 0.328125q-0.46875 0 -0.9375 -0.0625q-0.46875 -0.046875 -0.9375 -0.15625l0 4.09375l-1.703125 0l0 -13.8125l1.515625 0l0.109375 1.640625q0.734375 -1.0 1.5625 -1.40625q0.828125 -0.40625 1.796875 -0.40625q0.84375 0 1.46875 0.359375q0.640625 0.34375 1.0625 0.984375q0.4375 0.640625 0.640625 1.546875q0.21875 0.90625 0.21875 2.015625zm-1.734375 0.078125q0 -0.765625 -0.109375 -1.40625q-0.109375 -0.65625 -0.359375 -1.109375q-0.25 -0.46875 -0.625 -0.71875q-0.375 -0.265625 -0.90625 -0.265625q-0.328125 0 -0.65625 0.109375q-0.328125 0.09375 -0.6875 0.34375q-0.359375 0.234375 -0.75 0.640625q-0.390625 0.390625 -0.84375 0.96875l0 4.75q0.46875 0.203125 0.984375 0.3125q0.515625 0.109375 1.015625 0.109375q1.375 0 2.15625 -0.921875q0.78125 -0.9375 0.78125 -2.8125zm12.121094 2.328125q0 0.515625 -0.1875 0.921875q-0.171875 0.40625 -0.46875 0.734375q-0.296875 0.3125 -0.703125 0.546875q-0.40625 0.21875 -0.859375 0.375q-0.453125 0.140625 -0.9375 0.203125q-0.46875 0.0625 -0.921875 0.0625q-1.0 0 -1.84375 -0.09375q-0.828125 -0.078125 -1.625 -0.28125l0 -1.5625q0.859375 0.25 1.703125 0.375q0.859375 0.125 1.6875 0.125q1.21875 0 1.796875 -0.328125q0.59375 -0.328125 0.59375 -0.953125q0 -0.25 -0.09375 -0.453125q-0.078125 -0.21875 -0.328125 -0.40625q-0.25 -0.203125 -0.765625 -0.40625q-0.5 -0.203125 -1.390625 -0.46875q-0.671875 -0.1875 -1.234375 -0.4375q-0.5625 -0.25 -0.96875 -0.59375q-0.40625 -0.34375 -0.640625 -0.796875q-0.234375 -0.46875 -0.234375 -1.09375q0 -0.40625 0.1875 -0.890625q0.1875 -0.484375 0.640625 -0.90625q0.46875 -0.421875 1.25 -0.703125q0.78125 -0.28125 1.953125 -0.28125q0.578125 0 1.28125 0.0625q0.703125 0.0625 1.46875 0.21875l0 1.515625q-0.8125 -0.1875 -1.53125 -0.28125q-0.703125 -0.09375 -1.234375 -0.09375q-0.640625 0 -1.078125 0.09375q-0.421875 0.09375 -0.703125 0.265625q-0.265625 0.171875 -0.390625 0.40625q-0.109375 0.234375 -0.109375 0.484375q0 0.265625 0.09375 0.484375q0.109375 0.21875 0.390625 0.421875q0.28125 0.1875 0.78125 0.390625q0.5 0.203125 1.296875 0.4375q0.875 0.25 1.46875 0.53125q0.59375 0.28125 0.953125 0.625q0.375 0.34375 0.53125 0.78125q0.171875 0.421875 0.171875 0.96875zm7.1679688 -7.3125q0.296875 0 0.5625 0.125q0.28125 0.125 0.484375 0.328125q0.21875 0.203125 0.328125 0.484375q0.125 0.265625 0.125 0.5625q0 0.3125 -0.125 0.59375q-0.109375 0.265625 -0.328125 0.46875q-0.203125 0.203125 -0.484375 0.328125q-0.265625 0.109375 -0.5625 0.109375q-0.3125 0 -0.578125 -0.109375q-0.265625 -0.125 -0.484375 -0.328125q-0.203125 -0.203125 -0.328125 -0.46875q-0.109375 -0.28125 -0.109375 -0.59375q0 -0.296875 0.109375 -0.5625q0.125 -0.28125 0.328125 -0.484375q0.21875 -0.203125 0.484375 -0.328125q0.265625 -0.125 0.578125 -0.125zm0 7.15625q0.296875 0 0.5625 0.125q0.28125 0.125 0.484375 0.328125q0.21875 0.203125 0.328125 0.484375q0.125 0.265625 0.125 0.578125q0 0.3125 -0.125 0.578125q-0.109375 0.265625 -0.328125 0.46875q-0.203125 0.203125 -0.484375 0.3125q-0.265625 0.125 -0.5625 0.125q-0.3125 0 -0.578125 -0.125q-0.265625 -0.109375 -0.484375 -0.3125q-0.203125 -0.203125 -0.328125 -0.46875q-0.109375 -0.265625 -0.109375 -0.578125q0 -0.3125 0.109375 -0.578125q0.125 -0.28125 0.328125 -0.484375q0.21875 -0.203125 0.484375 -0.328125q0.265625 -0.125 0.578125 -0.125zm14.933594 -10.96875l-6.6875 15.890625l-1.625 0l6.703125 -15.890625l1.609375 0zm10.996094 0l-6.6875 15.890625l-1.625 0l6.703125 -15.890625l1.609375 0zm11.496094 8.71875q0 1.3125 -0.375 2.296875q-0.359375 0.96875 -1.0 1.609375q-0.640625 0.640625 -1.53125 0.96875q-0.875 0.328125 -1.890625 0.328125q-0.46875 0 -0.9375 -0.0625q-0.46875 -0.046875 -0.9375 -0.15625l0 4.09375l-1.703125 0l0 -13.8125l1.515625 0l0.109375 1.640625q0.734375 -1.0 1.5625 -1.40625q0.828125 -0.40625 1.796875 -0.40625q0.84375 0 1.46875 0.359375q0.640625 0.34375 1.0625 0.984375q0.4375 0.640625 0.640625 1.546875q0.21875 0.90625 0.21875 2.015625zm-1.734375 0.078125q0 -0.765625 -0.109375 -1.40625q-0.109375 -0.65625 -0.359375 -1.109375q-0.25 -0.46875 -0.625 -0.71875q-0.375 -0.265625 -0.90625 -0.265625q-0.328125 0 -0.65625 0.109375q-0.328125 0.09375 -0.6875 0.34375q-0.359375 0.234375 -0.75 0.640625q-0.390625 0.390625 -0.84375 0.96875l0 4.75q0.46875 0.203125 0.984375 0.3125q0.515625 0.109375 1.015625 0.109375q1.375 0 2.15625 -0.921875q0.78125 -0.9375 0.78125 -2.8125zm7.6992188 -3.40625l-2.90625 0l0 -1.40625l4.625 0l0 8.390625l2.921875 0l0 1.421875l-7.859375 0l0 -1.421875l3.21875 0l0 -6.984375zm0.59375 -5.515625q0.28125 0 0.515625 0.109375q0.25 0.09375 0.421875 0.28125q0.1875 0.1875 0.296875 0.4375q0.109375 0.234375 0.109375 0.515625q0 0.265625 -0.109375 0.515625q-0.109375 0.25 -0.296875 0.4375q-0.171875 0.171875 -0.421875 0.28125q-0.234375 0.109375 -0.515625 0.109375q-0.28125 0 -0.53125 -0.109375q-0.234375 -0.109375 -0.421875 -0.28125q-0.1875 -0.1875 -0.296875 -0.4375q-0.09375 -0.25 -0.09375 -0.515625q0 -0.28125 0.09375 -0.515625q0.109375 -0.25 0.296875 -0.4375q0.1875 -0.1875 0.421875 -0.28125q0.25 -0.109375 0.53125 -0.109375zm15.339844 8.5q0 0.359375 -0.015625 0.609375q0 0.234375 -0.015625 0.453125l-6.890625 0q0 1.5 0.828125 2.3125q0.84375 0.8125 2.4375 0.8125q0.421875 0 0.84375 -0.03125q0.4375 -0.046875 0.828125 -0.09375q0.40625 -0.0625 0.765625 -0.140625q0.375 -0.078125 0.6875 -0.15625l0 1.390625q-0.6875 0.203125 -1.5625 0.3125q-0.875 0.125 -1.8125 0.125q-1.265625 0 -2.171875 -0.34375q-0.90625 -0.34375 -1.484375 -0.984375q-0.578125 -0.65625 -0.859375 -1.59375q-0.28125 -0.9375 -0.28125 -2.140625q0 -1.03125 0.296875 -1.953125q0.296875 -0.921875 0.859375 -1.609375q0.578125 -0.703125 1.40625 -1.109375q0.84375 -0.421875 1.890625 -0.421875q1.03125 0 1.8125 0.328125q0.796875 0.3125 1.328125 0.90625q0.546875 0.59375 0.828125 1.4375q0.28125 0.84375 0.28125 1.890625zm-1.765625 -0.25q0.03125 -0.640625 -0.125 -1.1875q-0.15625 -0.546875 -0.484375 -0.9375q-0.328125 -0.390625 -0.828125 -0.609375q-0.484375 -0.21875 -1.125 -0.21875q-0.546875 0 -1.015625 0.21875q-0.453125 0.21875 -0.796875 0.609375q-0.328125 0.390625 -0.53125 0.9375q-0.203125 0.546875 -0.25 1.1875l5.15625 0zm12.386719 5.53125q-0.578125 0.15625 -1.203125 0.21875q-0.609375 0.0625 -1.25 0.0625q-1.84375 0 -2.75 -0.828125q-0.90625 -0.84375 -0.90625 -2.578125l0 -5.109375l-2.75 0l0 -1.4375l2.75 0l0 -2.6875l1.703125 -0.4375l0 3.125l4.40625 0l0 1.4375l-4.40625 0l0 4.96875q0 1.0625 0.5625 1.59375q0.5625 0.515625 1.65625 0.515625q0.46875 0 1.015625 -0.078125q0.5625 -0.078125 1.171875 -0.234375l0 1.46875zm11.371094 -5.28125q0 0.359375 -0.015625 0.609375q0 0.234375 -0.015625 0.453125l-6.890625 0q0 1.5 0.828125 2.3125q0.84375 0.8125 2.4375 0.8125q0.421875 0 0.84375 -0.03125q0.4375 -0.046875 0.828125 -0.09375q0.40625 -0.0625 0.765625 -0.140625q0.375 -0.078125 0.6875 -0.15625l0 1.390625q-0.6875 0.203125 -1.5625 0.3125q-0.875 0.125 -1.8125 0.125q-1.265625 0 -2.171875 -0.34375q-0.90625 -0.34375 -1.484375 -0.984375q-0.578125 -0.65625 -0.859375 -1.59375q-0.28125 -0.9375 -0.28125 -2.140625q0 -1.03125 0.296875 -1.953125q0.296875 -0.921875 0.859375 -1.609375q0.578125 -0.703125 1.40625 -1.109375q0.84375 -0.421875 1.890625 -0.421875q1.03125 0 1.8125 0.328125q0.796875 0.3125 1.328125 0.90625q0.546875 0.59375 0.828125 1.4375q0.28125 0.84375 0.28125 1.890625zm-1.765625 -0.25q0.03125 -0.640625 -0.125 -1.1875q-0.15625 -0.546875 -0.484375 -0.9375q-0.328125 -0.390625 -0.828125 -0.609375q-0.484375 -0.21875 -1.125 -0.21875q-0.546875 0 -1.015625 0.21875q-0.453125 0.21875 -0.796875 0.609375q-0.328125 0.390625 -0.53125 0.9375q-0.203125 0.546875 -0.25 1.1875l5.15625 0zm4.8867188 -4.140625l1.546875 0l0.046875 1.8125q0.875 -1.046875 1.71875 -1.515625q0.84375 -0.46875 1.703125 -0.46875q1.515625 0 2.296875 0.984375q0.796875 0.984375 0.734375 2.9375l-1.71875 0q0.03125 -1.296875 -0.375 -1.875q-0.40625 -0.578125 -1.1875 -0.578125q-0.34375 0 -0.6875 0.125q-0.34375 0.125 -0.71875 0.390625q-0.359375 0.265625 -0.765625 0.6875q-0.40625 0.421875 -0.875 1.015625l0 6.296875l-1.71875 0l0 -9.8125zm18.214844 9.453125q-0.671875 0.25 -1.375 0.375q-0.6875 0.125 -1.4375 0.125q-2.328125 0 -3.578125 -1.265625q-1.25 -1.265625 -1.25 -3.6875q0 -1.15625 0.359375 -2.09375q0.359375 -0.953125 1.015625 -1.625q0.65625 -0.671875 1.5625 -1.03125q0.90625 -0.375 2.0 -0.375q0.765625 0 1.421875 0.109375q0.671875 0.09375 1.28125 0.34375l0 1.625q-0.640625 -0.328125 -1.296875 -0.484375q-0.65625 -0.15625 -1.359375 -0.15625q-0.65625 0 -1.25 0.25q-0.578125 0.25 -1.015625 0.71875q-0.4375 0.46875 -0.6875 1.140625q-0.25 0.671875 -0.25 1.53125q0 1.765625 0.859375 2.65625q0.859375 0.890625 2.390625 0.890625q0.703125 0 1.34375 -0.15625q0.65625 -0.15625 1.265625 -0.46875l0 1.578125zm11.902344 -4.625q0 1.140625 -0.328125 2.09375q-0.3125 0.953125 -0.921875 1.640625q-0.59375 0.671875 -1.46875 1.046875q-0.875 0.375 -1.96875 0.375q-1.0625 0 -1.90625 -0.328125q-0.828125 -0.328125 -1.40625 -0.953125q-0.578125 -0.640625 -0.890625 -1.578125q-0.296875 -0.9375 -0.296875 -2.15625q0 -1.140625 0.3125 -2.078125q0.328125 -0.953125 0.921875 -1.625q0.609375 -0.6875 1.484375 -1.0625q0.875 -0.375 1.96875 -0.375q1.0625 0 1.890625 0.328125q0.84375 0.328125 1.421875 0.96875q0.578125 0.625 0.875 1.5625q0.3125 0.9375 0.3125 2.140625zm-1.734375 0.078125q0 -0.90625 -0.203125 -1.578125q-0.203125 -0.6875 -0.578125 -1.140625q-0.359375 -0.453125 -0.890625 -0.671875q-0.53125 -0.234375 -1.1875 -0.234375q-0.765625 0 -1.3125 0.296875q-0.53125 0.296875 -0.890625 0.796875q-0.34375 0.5 -0.5 1.15625q-0.15625 0.65625 -0.15625 1.375q0 0.90625 0.1875 1.59375q0.203125 0.6875 0.578125 1.140625q0.375 0.453125 0.890625 0.6875q0.53125 0.21875 1.203125 0.21875q0.765625 0 1.296875 -0.296875q0.546875 -0.296875 0.890625 -0.796875q0.34375 -0.5 0.5 -1.15625q0.171875 -0.65625 0.171875 -1.390625zm7.5429688 -7.5l-2.90625 0l0 -1.390625l4.625 0l0 12.375l2.921875 0l0 1.421875l-7.859375 0l0 -1.421875l3.21875 0l0 -10.984375zm16.027344 7.328125q0 1.3125 -0.375 2.296875q-0.359375 0.96875 -1.0 1.609375q-0.640625 0.640625 -1.53125 0.96875q-0.875 0.328125 -1.890625 0.328125q-0.46875 0 -0.9375 -0.0625q-0.46875 -0.046875 -0.9375 -0.15625l0 4.09375l-1.703125 0l0 -13.8125l1.515625 0l0.109375 1.640625q0.734375 -1.0 1.5625 -1.40625q0.828125 -0.40625 1.796875 -0.40625q0.84375 0 1.46875 0.359375q0.640625 0.34375 1.0625 0.984375q0.4375 0.640625 0.640625 1.546875q0.21875 0.90625 0.21875 2.015625zm-1.734375 0.078125q0 -0.765625 -0.109375 -1.40625q-0.109375 -0.65625 -0.359375 -1.109375q-0.25 -0.46875 -0.625 -0.71875q-0.375 -0.265625 -0.90625 -0.265625q-0.328125 0 -0.65625 0.109375q-0.328125 0.09375 -0.6875 0.34375q-0.359375 0.234375 -0.75 0.640625q-0.390625 0.390625 -0.84375 0.96875l0 4.75q0.46875 0.203125 0.984375 0.3125q0.515625 0.109375 1.015625 0.109375q1.375 0 2.15625 -0.921875q0.78125 -0.9375 0.78125 -2.8125zm10.652344 5.0l-0.03125 -1.3125q-0.8125 0.78125 -1.640625 1.140625q-0.8125 0.34375 -1.71875 0.34375q-0.84375 0 -1.4375 -0.203125q-0.59375 -0.21875 -0.984375 -0.59375q-0.390625 -0.375 -0.578125 -0.875q-0.171875 -0.515625 -0.171875 -1.125q0 -1.46875 1.09375 -2.296875q1.109375 -0.84375 3.25 -0.84375l2.03125 0l0 -0.859375q0 -0.859375 -0.5625 -1.375q-0.546875 -0.53125 -1.6875 -0.53125q-0.828125 0 -1.640625 0.1875q-0.796875 0.171875 -1.65625 0.515625l0 -1.53125q0.3125 -0.109375 0.703125 -0.21875q0.40625 -0.125 0.84375 -0.203125q0.4375 -0.09375 0.90625 -0.140625q0.484375 -0.0625 0.984375 -0.0625q0.890625 0 1.59375 0.203125q0.71875 0.1875 1.203125 0.59375q0.5 0.390625 0.765625 1.0q0.265625 0.609375 0.265625 1.421875l0 6.765625l-1.53125 0zm-0.1875 -4.46875l-2.15625 0q-0.625 0 -1.09375 0.140625q-0.453125 0.125 -0.75 0.359375q-0.296875 0.234375 -0.4375 0.5625q-0.140625 0.3125 -0.140625 0.734375q0 0.28125 0.078125 0.546875q0.09375 0.25 0.28125 0.453125q0.203125 0.203125 0.515625 0.328125q0.3125 0.109375 0.765625 0.109375q0.59375 0 1.34375 -0.359375q0.765625 -0.359375 1.59375 -1.125l0 -1.75zm13.167969 -0.953125q0 0.359375 -0.015625 0.609375q0 0.234375 -0.015625 0.453125l-6.890625 0q0 1.5 0.828125 2.3125q0.84375 0.8125 2.4375 0.8125q0.421875 0 0.84375 -0.03125q0.4375 -0.046875 0.828125 -0.09375q0.40625 -0.0625 0.765625 -0.140625q0.375 -0.078125 0.6875 -0.15625l0 1.390625q-0.6875 0.203125 -1.5625 0.3125q-0.875 0.125 -1.8125 0.125q-1.265625 0 -2.171875 -0.34375q-0.90625 -0.34375 -1.484375 -0.984375q-0.578125 -0.65625 -0.859375 -1.59375q-0.28125 -0.9375 -0.28125 -2.140625q0 -1.03125 0.296875 -1.953125q0.296875 -0.921875 0.859375 -1.609375q0.578125 -0.703125 1.40625 -1.109375q0.84375 -0.421875 1.890625 -0.421875q1.03125 0 1.8125 0.328125q0.796875 0.3125 1.328125 0.90625q0.546875 0.59375 0.828125 1.4375q0.28125 0.84375 0.28125 1.890625zm-1.765625 -0.25q0.03125 -0.640625 -0.125 -1.1875q-0.15625 -0.546875 -0.484375 -0.9375q-0.328125 -0.390625 -0.828125 -0.609375q-0.484375 -0.21875 -1.125 -0.21875q-0.546875 0 -1.015625 0.21875q-0.453125 0.21875 -0.796875 0.609375q-0.328125 0.390625 -0.53125 0.9375q-0.203125 0.546875 -0.25 1.1875l5.15625 0zm4.8867188 -4.140625l1.546875 0l0.046875 1.8125q0.875 -1.046875 1.71875 -1.515625q0.84375 -0.46875 1.703125 -0.46875q1.515625 0 2.296875 0.984375q0.796875 0.984375 0.734375 2.9375l-1.71875 0q0.03125 -1.296875 -0.375 -1.875q-0.40625 -0.578125 -1.1875 -0.578125q-0.34375 0 -0.6875 0.125q-0.34375 0.125 -0.71875 0.390625q-0.359375 0.265625 -0.765625 0.6875q-0.40625 0.421875 -0.875 1.015625l0 6.296875l-1.71875 0l0 -9.8125zm18.496094 9.671875q-0.578125 0.15625 -1.203125 0.21875q-0.609375 0.0625 -1.25 0.0625q-1.84375 0 -2.75 -0.828125q-0.90625 -0.84375 -0.90625 -2.578125l0 -5.109375l-2.75 0l0 -1.4375l2.75 0l0 -2.6875l1.703125 -0.4375l0 3.125l4.40625 0l0 1.4375l-4.40625 0l0 4.96875q0 1.0625 0.5625 1.59375q0.5625 0.515625 1.65625 0.515625q0.46875 0 1.015625 -0.078125q0.5625 -0.078125 1.171875 -0.234375l0 1.46875zm6.9492188 -2.9375q0.328125 0 0.625 0.125q0.296875 0.125 0.515625 0.359375q0.21875 0.21875 0.34375 0.515625q0.140625 0.296875 0.140625 0.640625q0 0.328125 -0.140625 0.625q-0.125 0.296875 -0.34375 0.515625q-0.21875 0.21875 -0.515625 0.34375q-0.296875 0.125 -0.625 0.125q-0.34375 0 -0.640625 -0.125q-0.28125 -0.125 -0.515625 -0.34375q-0.21875 -0.21875 -0.34375 -0.515625q-0.125 -0.296875 -0.125 -0.625q0 -0.34375 0.125 -0.640625q0.125 -0.296875 0.34375 -0.515625q0.234375 -0.234375 0.515625 -0.359375q0.296875 -0.125 0.640625 -0.125zm15.511719 -2.0q0 1.21875 -0.34375 2.1875q-0.328125 0.953125 -0.953125 1.625q-0.609375 0.671875 -1.5 1.03125q-0.890625 0.359375 -2.0 0.359375q-0.875 0 -1.78125 -0.171875q-0.90625 -0.171875 -1.796875 -0.53125l0 -13.21875l1.703125 0l0 3.796875l-0.078125 1.8125q0.734375 -0.984375 1.5625 -1.390625q0.84375 -0.40625 1.796875 -0.40625q0.84375 0 1.46875 0.359375q0.640625 0.34375 1.0625 0.984375q0.4375 0.640625 0.640625 1.546875q0.21875 0.90625 0.21875 2.015625zm-1.734375 0.078125q0 -0.765625 -0.109375 -1.40625q-0.109375 -0.65625 -0.359375 -1.109375q-0.25 -0.46875 -0.625 -0.71875q-0.375 -0.265625 -0.90625 -0.265625q-0.328125 0 -0.65625 0.109375q-0.328125 0.09375 -0.6875 0.34375q-0.359375 0.234375 -0.75 0.640625q-0.390625 0.390625 -0.84375 0.96875l0 4.75q0.5 0.203125 1.015625 0.3125q0.515625 0.109375 0.984375 0.109375q0.578125 0 1.109375 -0.171875q0.546875 -0.1875 0.9375 -0.625q0.40625 -0.4375 0.640625 -1.15625q0.25 -0.71875 0.25 -1.78125zm12.636719 -0.421875q0 0.359375 -0.015625 0.609375q0 0.234375 -0.015625 0.453125l-6.890625 0q0 1.5 0.828125 2.3125q0.84375 0.8125 2.4375 0.8125q0.421875 0 0.84375 -0.03125q0.4375 -0.046875 0.828125 -0.09375q0.40625 -0.0625 0.765625 -0.140625q0.375 -0.078125 0.6875 -0.15625l0 1.390625q-0.6875 0.203125 -1.5625 0.3125q-0.875 0.125 -1.8125 0.125q-1.265625 0 -2.171875 -0.34375q-0.90625 -0.34375 -1.484375 -0.984375q-0.578125 -0.65625 -0.859375 -1.59375q-0.28125 -0.9375 -0.28125 -2.140625q0 -1.03125 0.296875 -1.953125q0.296875 -0.921875 0.859375 -1.609375q0.578125 -0.703125 1.40625 -1.109375q0.84375 -0.421875 1.890625 -0.421875q1.03125 0 1.8125 0.328125q0.796875 0.3125 1.328125 0.90625q0.546875 0.59375 0.828125 1.4375q0.28125 0.84375 0.28125 1.890625zm-1.765625 -0.25q0.03125 -0.640625 -0.125 -1.1875q-0.15625 -0.546875 -0.484375 -0.9375q-0.328125 -0.390625 -0.828125 -0.609375q-0.484375 -0.21875 -1.125 -0.21875q-0.546875 0 -1.015625 0.21875q-0.453125 0.21875 -0.796875 0.609375q-0.328125 0.390625 -0.53125 0.9375q-0.203125 0.546875 -0.25 1.1875l5.15625 0zm12.355469 -8.125l-6.6875 15.890625l-1.625 0l6.703125 -15.890625l1.609375 0zm11.621094 10.21875l-2.1875 0l-0.359375 3.578125l-1.4375 0l0.359375 -3.578125l-2.484375 0l-0.375 3.578125l-1.4375 0l0.359375 -3.578125l-2.078125 0l0 -1.28125l2.203125 0l0.359375 -3.40625l-2.0625 0l0 -1.28125l2.1875 0l0.328125 -3.21875l1.421875 0l-0.3125 3.21875l2.5 0l0.328125 -3.21875l1.4375 0l-0.328125 3.21875l2.09375 0l0 1.28125l-2.234375 0l-0.328125 3.40625l2.046875 0l0 1.28125zm-3.484375 -1.28125l0.34375 -3.40625l-2.5 0l-0.34375 3.40625l2.5 0zm12.980469 4.859375l0 -7.046875q0 -0.453125 -0.046875 -0.75q-0.03125 -0.296875 -0.109375 -0.453125q-0.0625 -0.171875 -0.1875 -0.234375q-0.109375 -0.078125 -0.265625 -0.078125q-0.203125 0 -0.375 0.125q-0.15625 0.109375 -0.34375 0.375q-0.1875 0.265625 -0.421875 0.703125q-0.234375 0.421875 -0.546875 1.0625l0 6.296875l-1.546875 0l0 -6.859375q0 -0.53125 -0.03125 -0.859375q-0.03125 -0.34375 -0.109375 -0.515625q-0.078125 -0.1875 -0.203125 -0.25q-0.109375 -0.078125 -0.265625 -0.078125q-0.1875 0 -0.34375 0.09375q-0.15625 0.09375 -0.34375 0.359375q-0.1875 0.25 -0.421875 0.6875q-0.234375 0.4375 -0.5625 1.125l0 6.296875l-1.5625 0l0 -9.8125l1.296875 0l0.078125 1.875q0.265625 -0.5625 0.5 -0.953125q0.234375 -0.390625 0.484375 -0.625q0.265625 -0.234375 0.546875 -0.34375q0.296875 -0.125 0.640625 -0.125q0.796875 0 1.203125 0.515625q0.40625 0.515625 0.40625 1.609375q0.234375 -0.515625 0.453125 -0.90625q0.234375 -0.390625 0.484375 -0.65625q0.265625 -0.28125 0.578125 -0.421875q0.3125 -0.140625 0.71875 -0.140625q1.859375 0 1.859375 2.84375l0 7.140625l-1.5625 0zm12.277344 -5.421875q0 0.359375 -0.015625 0.609375q0 0.234375 -0.015625 0.453125l-6.890625 0q0 1.5 0.828125 2.3125q0.84375 0.8125 2.4375 0.8125q0.421875 0 0.84375 -0.03125q0.4375 -0.046875 0.828125 -0.09375q0.40625 -0.0625 0.765625 -0.140625q0.375 -0.078125 0.6875 -0.15625l0 1.390625q-0.6875 0.203125 -1.5625 0.3125q-0.875 0.125 -1.8125 0.125q-1.265625 0 -2.171875 -0.34375q-0.90625 -0.34375 -1.484375 -0.984375q-0.578125 -0.65625 -0.859375 -1.59375q-0.28125 -0.9375 -0.28125 -2.140625q0 -1.03125 0.296875 -1.953125q0.296875 -0.921875 0.859375 -1.609375q0.578125 -0.703125 1.40625 -1.109375q0.84375 -0.421875 1.890625 -0.421875q1.03125 0 1.8125 0.328125q0.796875 0.3125 1.328125 0.90625q0.546875 0.59375 0.828125 1.4375q0.28125 0.84375 0.28125 1.890625zm-1.765625 -0.25q0.03125 -0.640625 -0.125 -1.1875q-0.15625 -0.546875 -0.484375 -0.9375q-0.328125 -0.390625 -0.828125 -0.609375q-0.484375 -0.21875 -1.125 -0.21875q-0.546875 0 -1.015625 0.21875q-0.453125 0.21875 -0.796875 0.609375q-0.328125 0.390625 -0.53125 0.9375q-0.203125 0.546875 -0.25 1.1875l5.15625 0zm4.9648438 -4.046875l1.046875 -1.078125l6.5625 5.46875l-6.5625 5.484375l-1.046875 -1.078125l5.3125 -4.375l-5.3125 -4.421875z" fill-rule="nonzero"/><path fill="#010000" fill-opacity="0.0" d="m349.8789 273.1953l10.996094 0l0 23.417969l-10.996094 0l0 -23.417969z" fill-rule="nonzero"/><path fill="#000000" fill-opacity="0.0" d="m360.875 273.1953l10.996094 0l0 23.417969l-10.996094 0l0 -23.417969z" fill-rule="nonzero"/><path fill="#990055" d="m368.73438 288.04883l-0.03125 -1.3125q-0.8125 0.78125 -1.640625 1.140625q-0.8125 0.34375 -1.71875 0.34375q-0.84375 0 -1.4375 -0.203125q-0.59375 -0.21875 -0.984375 -0.59375q-0.390625 -0.375 -0.578125 -0.875q-0.171875 -0.515625 -0.171875 -1.125q0 -1.46875 1.09375 -2.296875q1.109375 -0.84375 3.25 -0.84375l2.03125 0l0 -0.859375q0 -0.859375 -0.5625 -1.375q-0.546875 -0.53125 -1.6875 -0.53125q-0.828125 0 -1.640625 0.1875q-0.796875 0.171875 -1.65625 0.515625l0 -1.53125q0.3125 -0.109375 0.703125 -0.21875q0.40625 -0.125 0.84375 -0.203125q0.4375 -0.09375 0.90625 -0.140625q0.484375 -0.0625 0.984375 -0.0625q0.890625 0 1.59375 0.203125q0.71875 0.1875 1.203125 0.59375q0.5 0.390625 0.765625 1.0q0.265625 0.609375 0.265625 1.421875l0 6.765625l-1.53125 0zm-0.1875 -4.46875l-2.15625 0q-0.625 0 -1.09375 0.140625q-0.453125 0.125 -0.75 0.359375q-0.296875 0.234375 -0.4375 0.5625q-0.140625 0.3125 -0.140625 0.734375q0 0.28125 0.078125 0.546875q0.09375 0.25 0.28125 0.453125q0.203125 0.203125 0.515625 0.328125q0.3125 0.109375 0.765625 0.109375q0.59375 0 1.34375 -0.359375q0.765625 -0.359375 1.59375 -1.125l0 -1.75z" fill-rule="nonzero"/><path fill="#010000" fill-opacity="0.0" d="m371.8711 273.1953l10.996094 0l0 23.417969l-10.996094 0l0 -23.417969z" fill-rule="nonzero"/><path fill="#000000" fill-opacity="0.0" d="m382.8672 273.1953l54.98047 0l0 23.417969l-54.98047 0l0 -23.417969z" fill-rule="nonzero"/><path fill="#0077aa" d="m393.1328 275.83008q-1.34375 -0.28125 -2.3125 -0.28125q-2.28125 0 -2.28125 2.40625l0 1.71875l4.296875 0l0 1.40625l-4.296875 0l0 6.96875l-1.734375 0l0 -6.96875l-3.15625 0l0 -1.40625l3.15625 0l0 -1.625q0 -3.921875 4.078125 -3.921875q1.015625 0 2.25 0.234375l0 1.46875zm-10.265625 2.40625l0 0zm21.089844 4.828125q0 1.140625 -0.328125 2.09375q-0.3125 0.953125 -0.921875 1.640625q-0.59375 0.671875 -1.46875 1.046875q-0.875 0.375 -1.96875 0.375q-1.0625 0 -1.90625 -0.328125q-0.828125 -0.328125 -1.40625 -0.953125q-0.578125 -0.640625 -0.890625 -1.578125q-0.296875 -0.9375 -0.296875 -2.15625q0 -1.140625 0.3125 -2.078125q0.328125 -0.953125 0.921875 -1.625q0.609375 -0.6875 1.484375 -1.0625q0.875 -0.375 1.96875 -0.375q1.0625 0 1.890625 0.328125q0.84375 0.328125 1.421875 0.96875q0.578125 0.625 0.875 1.5625q0.3125 0.9375 0.3125 2.140625zm-1.734375 0.078125q0 -0.90625 -0.203125 -1.578125q-0.203125 -0.6875 -0.578125 -1.140625q-0.359375 -0.453125 -0.890625 -0.671875q-0.53125 -0.234375 -1.1875 -0.234375q-0.765625 0 -1.3125 0.296875q-0.53125 0.296875 -0.890625 0.796875q-0.34375 0.5 -0.5 1.15625q-0.15625 0.65625 -0.15625 1.375q0 0.90625 0.1875 1.59375q0.203125 0.6875 0.578125 1.140625q0.375 0.453125 0.890625 0.6875q0.53125 0.21875 1.203125 0.21875q0.765625 0 1.296875 -0.296875q0.546875 -0.296875 0.890625 -0.796875q0.34375 -0.5 0.5 -1.15625q0.171875 -0.65625 0.171875 -1.390625zm10.496094 4.90625l-0.03125 -1.3125q-0.8125 0.78125 -1.640625 1.140625q-0.8125 0.34375 -1.71875 0.34375q-0.84375 0 -1.4375 -0.203125q-0.59375 -0.21875 -0.984375 -0.59375q-0.390625 -0.375 -0.578125 -0.875q-0.171875 -0.515625 -0.171875 -1.125q0 -1.46875 1.09375 -2.296875q1.109375 -0.84375 3.25 -0.84375l2.03125 0l0 -0.859375q0 -0.859375 -0.5625 -1.375q-0.546875 -0.53125 -1.6875 -0.53125q-0.828125 0 -1.640625 0.1875q-0.796875 0.171875 -1.65625 0.515625l0 -1.53125q0.3125 -0.109375 0.703125 -0.21875q0.40625 -0.125 0.84375 -0.203125q0.4375 -0.09375 0.90625 -0.140625q0.484375 -0.0625 0.984375 -0.0625q0.890625 0 1.59375 0.203125q0.71875 0.1875 1.203125 0.59375q0.5 0.390625 0.765625 1.0q0.265625 0.609375 0.265625 1.421875l0 6.765625l-1.53125 0zm-0.1875 -4.46875l-2.15625 0q-0.625 0 -1.09375 0.140625q-0.453125 0.125 -0.75 0.359375q-0.296875 0.234375 -0.4375 0.5625q-0.140625 0.3125 -0.140625 0.734375q0 0.28125 0.078125 0.546875q0.09375 0.25 0.28125 0.453125q0.203125 0.203125 0.515625 0.328125q0.3125 0.109375 0.765625 0.109375q0.59375 0 1.34375 -0.359375q0.765625 -0.359375 1.59375 -1.125l0 -1.75zm13.589844 -7.75q-1.34375 -0.28125 -2.3125 -0.28125q-2.28125 0 -2.28125 2.40625l0 1.71875l4.296875 0l0 1.40625l-4.296875 0l0 6.96875l-1.734375 0l0 -6.96875l-3.15625 0l0 -1.40625l3.15625 0l0 -1.625q0 -3.921875 4.078125 -3.921875q1.015625 0 2.25 0.234375l0 1.46875zm-10.265625 2.40625l0 0zm16.496094 -0.171875q0.296875 0 0.5625 0.125q0.28125 0.125 0.484375 0.328125q0.21875 0.203125 0.328125 0.484375q0.125 0.265625 0.125 0.5625q0 0.3125 -0.125 0.59375q-0.109375 0.265625 -0.328125 0.46875q-0.203125 0.203125 -0.484375 0.328125q-0.265625 0.109375 -0.5625 0.109375q-0.3125 0 -0.578125 -0.109375q-0.265625 -0.125 -0.484375 -0.328125q-0.203125 -0.203125 -0.328125 -0.46875q-0.109375 -0.28125 -0.109375 -0.59375q0 -0.296875 0.109375 -0.5625q0.125 -0.28125 0.328125 -0.484375q0.21875 -0.203125 0.484375 -0.328125q0.265625 -0.125 0.578125 -0.125zm0 7.15625q0.296875 0 0.5625 0.125q0.28125 0.125 0.484375 0.328125q0.21875 0.203125 0.328125 0.484375q0.125 0.265625 0.125 0.578125q0 0.3125 -0.125 0.578125q-0.109375 0.265625 -0.328125 0.46875q-0.203125 0.203125 -0.484375 0.3125q-0.265625 0.125 -0.5625 0.125q-0.3125 0 -0.578125 -0.125q-0.265625 -0.109375 -0.484375 -0.3125q-0.203125 -0.203125 -0.328125 -0.46875q-0.109375 -0.265625 -0.109375 -0.578125q0 -0.3125 0.109375 -0.578125q0.125 -0.28125 0.328125 -0.484375q0.21875 -0.203125 0.484375 -0.328125q0.265625 -0.125 0.578125 -0.125z" fill-rule="nonzero"/><path fill="#010000" fill-opacity="0.0" d="m437.84766 273.1953l65.97656 0l0 23.417969l-65.97656 0l0 -23.417969z" fill-rule="nonzero"/><path fill="#669900" d="m447.76953 279.18945q0 0.78125 -0.296875 1.546875q-0.28125 0.765625 -0.90625 1.375q-0.609375 0.609375 -1.578125 0.984375q-0.953125 0.375 -2.28125 0.375l-1.578125 0l0 4.578125l-1.734375 0l0 -12.765625l3.59375 0q0.9375 0 1.8125 0.21875q0.875 0.203125 1.53125 0.671875q0.65625 0.46875 1.046875 1.21875q0.390625 0.734375 0.390625 1.796875zm-1.8125 0.078125q0 -1.234375 -0.8125 -1.875q-0.796875 -0.65625 -2.234375 -0.65625l-1.78125 0l0 5.25l1.625 0q1.546875 0 2.375 -0.671875q0.828125 -0.671875 0.828125 -2.046875zm12.730469 3.359375q0 0.359375 -0.015625 0.609375q0 0.234375 -0.015625 0.453125l-6.890625 0q0 1.5 0.828125 2.3125q0.84375 0.8125 2.4375 0.8125q0.421875 0 0.84375 -0.03125q0.4375 -0.046875 0.828125 -0.09375q0.40625 -0.0625 0.765625 -0.140625q0.375 -0.078125 0.6875 -0.15625l0 1.390625q-0.6875 0.203125 -1.5625 0.3125q-0.875 0.125 -1.8125 0.125q-1.265625 0 -2.171875 -0.34375q-0.90625 -0.34375 -1.484375 -0.984375q-0.578125 -0.65625 -0.859375 -1.59375q-0.28125 -0.9375 -0.28125 -2.140625q0 -1.03125 0.296875 -1.953125q0.296875 -0.921875 0.859375 -1.609375q0.578125 -0.703125 1.40625 -1.109375q0.84375 -0.421875 1.890625 -0.421875q1.03125 0 1.8125 0.328125q0.796875 0.3125 1.328125 0.90625q0.546875 0.59375 0.828125 1.4375q0.28125 0.84375 0.28125 1.890625zm-1.765625 -0.25q0.03125 -0.640625 -0.125 -1.1875q-0.15625 -0.546875 -0.484375 -0.9375q-0.328125 -0.390625 -0.828125 -0.609375q-0.484375 -0.21875 -1.125 -0.21875q-0.546875 0 -1.015625 0.21875q-0.453125 0.21875 -0.796875 0.609375q-0.328125 0.390625 -0.53125 0.9375q-0.203125 0.546875 -0.25 1.1875l5.15625 0zm4.8867188 -4.140625l1.546875 0l0.046875 1.8125q0.875 -1.046875 1.71875 -1.515625q0.84375 -0.46875 1.703125 -0.46875q1.515625 0 2.296875 0.984375q0.796875 0.984375 0.734375 2.9375l-1.71875 0q0.03125 -1.296875 -0.375 -1.875q-0.40625 -0.578125 -1.1875 -0.578125q-0.34375 0 -0.6875 0.125q-0.34375 0.125 -0.71875 0.390625q-0.359375 0.265625 -0.765625 0.6875q-0.40625 0.421875 -0.875 1.015625l0 6.296875l-1.71875 0l0 -9.8125zm18.355469 7.140625q0 0.515625 -0.1875 0.921875q-0.171875 0.40625 -0.46875 0.734375q-0.296875 0.3125 -0.703125 0.546875q-0.40625 0.21875 -0.859375 0.375q-0.453125 0.140625 -0.9375 0.203125q-0.46875 0.0625 -0.921875 0.0625q-1.0 0 -1.84375 -0.09375q-0.828125 -0.078125 -1.625 -0.28125l0 -1.5625q0.859375 0.25 1.703125 0.375q0.859375 0.125 1.6875 0.125q1.21875 0 1.796875 -0.328125q0.59375 -0.328125 0.59375 -0.953125q0 -0.25 -0.09375 -0.453125q-0.078125 -0.21875 -0.328125 -0.40625q-0.25 -0.203125 -0.765625 -0.40625q-0.5 -0.203125 -1.390625 -0.46875q-0.671875 -0.1875 -1.234375 -0.4375q-0.5625 -0.25 -0.96875 -0.59375q-0.40625 -0.34375 -0.640625 -0.796875q-0.234375 -0.46875 -0.234375 -1.09375q0 -0.40625 0.1875 -0.890625q0.1875 -0.484375 0.640625 -0.90625q0.46875 -0.421875 1.25 -0.703125q0.78125 -0.28125 1.953125 -0.28125q0.578125 0 1.28125 0.0625q0.703125 0.0625 1.46875 0.21875l0 1.515625q-0.8125 -0.1875 -1.53125 -0.28125q-0.703125 -0.09375 -1.234375 -0.09375q-0.640625 0 -1.078125 0.09375q-0.421875 0.09375 -0.703125 0.265625q-0.265625 0.171875 -0.390625 0.40625q-0.109375 0.234375 -0.109375 0.484375q0 0.265625 0.09375 0.484375q0.109375 0.21875 0.390625 0.421875q0.28125 0.1875 0.78125 0.390625q0.5 0.203125 1.296875 0.4375q0.875 0.25 1.46875 0.53125q0.59375 0.28125 0.953125 0.625q0.375 0.34375 0.53125 0.78125q0.171875 0.421875 0.171875 0.96875zm11.761719 -2.3125q0 1.140625 -0.328125 2.09375q-0.3125 0.953125 -0.921875 1.640625q-0.59375 0.671875 -1.46875 1.046875q-0.875 0.375 -1.96875 0.375q-1.0625 0 -1.90625 -0.328125q-0.828125 -0.328125 -1.40625 -0.953125q-0.578125 -0.640625 -0.890625 -1.578125q-0.296875 -0.9375 -0.296875 -2.15625q0 -1.140625 0.3125 -2.078125q0.328125 -0.953125 0.921875 -1.625q0.609375 -0.6875 1.484375 -1.0625q0.875 -0.375 1.96875 -0.375q1.0625 0 1.890625 0.328125q0.84375 0.328125 1.421875 0.96875q0.578125 0.625 0.875 1.5625q0.3125 0.9375 0.3125 2.140625zm-1.734375 0.078125q0 -0.90625 -0.203125 -1.578125q-0.203125 -0.6875 -0.578125 -1.140625q-0.359375 -0.453125 -0.890625 -0.671875q-0.53125 -0.234375 -1.1875 -0.234375q-0.765625 0 -1.3125 0.296875q-0.53125 0.296875 -0.890625 0.796875q-0.34375 0.5 -0.5 1.15625q-0.15625 0.65625 -0.15625 1.375q0 0.90625 0.1875 1.59375q0.203125 0.6875 0.578125 1.140625q0.375 0.453125 0.890625 0.6875q0.53125 0.21875 1.203125 0.21875q0.765625 0 1.296875 -0.296875q0.546875 -0.296875 0.890625 -0.796875q0.34375 -0.5 0.5 -1.15625q0.171875 -0.65625 0.171875 -1.390625zm4.1992188 -4.90625l1.515625 0l0.0625 1.59375q0.4375 -0.515625 0.828125 -0.84375q0.40625 -0.34375 0.78125 -0.546875q0.390625 -0.203125 0.796875 -0.28125q0.40625 -0.09375 0.828125 -0.09375q1.515625 0 2.28125 0.90625q0.78125 0.890625 0.78125 2.6875l0 6.390625l-1.6875 0l0 -6.265625q0 -1.140625 -0.4375 -1.6875q-0.421875 -0.5625 -1.28125 -0.5625q-0.3125 0 -0.609375 0.09375q-0.296875 0.09375 -0.625 0.328125q-0.3125 0.21875 -0.6875 0.609375q-0.375 0.390625 -0.84375 0.984375l0 6.5l-1.703125 0l0 -9.8125z" fill-rule="nonzero"/><path fill="#000000" fill-opacity="0.0" d="m503.82422 273.1953l10.996094 0l0 23.417969l-10.996094 0l0 -23.417969z" fill-rule="nonzero"/><path fill="#010000" fill-opacity="0.0" d="m514.8203 273.1953l10.996094 0l0 23.417969l-10.996094 0l0 -23.417969z" fill-rule="nonzero"/><path fill="#999999" d="m520.2422 284.9707q0.328125 0 0.625 0.125q0.296875 0.125 0.515625 0.359375q0.21875 0.21875 0.34375 0.515625q0.140625 0.296875 0.140625 0.640625q0 0.328125 -0.140625 0.625q-0.125 0.296875 -0.34375 0.515625q-0.21875 0.21875 -0.515625 0.34375q-0.296875 0.125 -0.625 0.125q-0.34375 0 -0.640625 -0.125q-0.28125 -0.125 -0.515625 -0.34375q-0.21875 -0.21875 -0.34375 -0.515625q-0.125 -0.296875 -0.125 -0.625q0 -0.34375 0.125 -0.640625q0.125 -0.296875 0.34375 -0.515625q0.234375 -0.234375 0.515625 -0.359375q0.296875 -0.125 0.640625 -0.125z" fill-rule="nonzero"/><path fill="#000000" d="m17.359375 309.90942l-0.984375 1.0l-6.125 -5.109375l6.125 -5.109375l0.984375 1.015625l-4.96875 4.078125l4.96875 4.125zm10.710419 -12.015625l-6.25 14.828125l-1.515625 0l6.25 -14.828125l1.515625 0z" fill-rule="nonzero"/><path fill="#000000" d="m38.420837 308.05005q0 0.78125 -0.359375 1.34375q-0.34375 0.5625 -0.921875 0.921875q-0.578125 0.34375 -1.3125 0.5q-0.734375 0.15625 -1.5 0.15625q-1.015625 0 -1.84375 -0.09375q-0.8125 -0.09375 -1.546875 -0.265625l0 -2.015625q0.859375 0.359375 1.703125 0.515625q0.859375 0.15625 1.609375 0.15625q0.875 0 1.3125 -0.265625q0.4375 -0.28125 0.4375 -0.734375q0 -0.203125 -0.09375 -0.375q-0.09375 -0.171875 -0.34375 -0.328125q-0.25 -0.171875 -0.71875 -0.328125q-0.453125 -0.171875 -1.1875 -0.390625q-0.671875 -0.1875 -1.1875 -0.421875q-0.515625 -0.25 -0.859375 -0.578125q-0.328125 -0.328125 -0.5 -0.75q-0.171875 -0.4375 -0.171875 -1.03125q0 -0.5625 0.25 -1.0625q0.265625 -0.5 0.765625 -0.875q0.5 -0.375 1.25 -0.59375q0.765625 -0.21875 1.78125 -0.21875q0.875 0 1.546875 0.09375q0.671875 0.078125 1.1875 0.1875l0 1.828125q-0.78125 -0.265625 -1.484375 -0.359375q-0.703125 -0.109375 -1.375 -0.109375q-0.6875 0 -1.109375 0.25q-0.40625 0.234375 -0.40625 0.671875q0 0.21875 0.078125 0.390625q0.078125 0.15625 0.3125 0.3125q0.25 0.140625 0.6875 0.3125q0.4375 0.171875 1.140625 0.375q0.796875 0.21875 1.34375 0.484375q0.546875 0.265625 0.875 0.59375q0.34375 0.328125 0.484375 0.75q0.15625 0.40625 0.15625 0.953125zm10.101044 2.359375q-0.65625 0.265625 -1.359375 0.390625q-0.6875 0.125 -1.453125 0.125q-1.109375 0 -1.984375 -0.296875q-0.875 -0.296875 -1.484375 -0.890625q-0.609375 -0.59375 -0.9375 -1.46875q-0.3125 -0.875 -0.3125 -2.015625q0 -1.109375 0.34375 -2.015625q0.34375 -0.90625 0.984375 -1.53125q0.640625 -0.640625 1.53125 -0.984375q0.90625 -0.359375 2.0 -0.359375q0.90625 0 1.515625 0.109375q0.625 0.09375 1.109375 0.234375l0 2.15625q-0.5625 -0.28125 -1.21875 -0.4375q-0.65625 -0.15625 -1.25 -0.15625q-0.625 0 -1.125 0.21875q-0.484375 0.203125 -0.828125 0.578125q-0.328125 0.375 -0.515625 0.90625q-0.171875 0.53125 -0.171875 1.171875q0 0.65625 0.1875 1.1875q0.203125 0.53125 0.546875 0.90625q0.359375 0.359375 0.84375 0.5625q0.5 0.1875 1.09375 0.1875q0.296875 0 0.609375 -0.03125q0.328125 -0.046875 0.65625 -0.125q0.328125 -0.078125 0.640625 -0.171875q0.3125 -0.109375 0.578125 -0.21875l0 1.96875zm8.726044 -5.296875q0.015625 -0.515625 -0.046875 -0.875q-0.0625 -0.375 -0.21875 -0.609375q-0.140625 -0.234375 -0.359375 -0.34375q-0.21875 -0.109375 -0.515625 -0.109375q-0.484375 0 -1.015625 0.40625q-0.515625 0.40625 -1.140625 1.328125l0 5.859375l-2.28125 0l0 -9.25l2.015625 0l0.078125 1.34375q0.234375 -0.359375 0.515625 -0.640625q0.28125 -0.28125 0.625 -0.484375q0.359375 -0.203125 0.78125 -0.3125q0.4375 -0.109375 0.953125 -0.109375q0.703125 0 1.234375 0.25q0.546875 0.234375 0.90625 0.703125q0.375 0.46875 0.546875 1.1875q0.1875 0.71875 0.15625 1.65625l-2.234375 0zm9.757294 -6.125q0 0.296875 -0.109375 0.5625q-0.109375 0.265625 -0.3125 0.46875q-0.1875 0.1875 -0.453125 0.296875q-0.265625 0.109375 -0.578125 0.109375q-0.3125 0 -0.578125 -0.109375q-0.265625 -0.109375 -0.46875 -0.296875q-0.1875 -0.203125 -0.296875 -0.46875q-0.109375 -0.265625 -0.109375 -0.5625q0 -0.3125 0.109375 -0.5625q0.109375 -0.265625 0.296875 -0.46875q0.203125 -0.203125 0.46875 -0.3125q0.265625 -0.125 0.578125 -0.125q0.3125 0 0.578125 0.125q0.265625 0.109375 0.453125 0.3125q0.203125 0.203125 0.3125 0.46875q0.109375 0.25 0.109375 0.5625zm-2.46875 4.25l-2.609375 0l0 -1.71875l4.890625 0l0 7.515625l2.671875 0l0 1.734375l-7.875 0l0 -1.734375l2.921875 0l0 -5.796875zm15.601044 2.734375q0 1.28125 -0.359375 2.21875q-0.359375 0.921875 -1.0 1.546875q-0.640625 0.609375 -1.515625 0.90625q-0.875 0.28125 -1.90625 0.28125q-0.34375 0 -0.703125 -0.046875q-0.34375 -0.03125 -0.625 -0.109375l0 3.609375l-2.21875 0l0 -12.859375l1.921875 0l0.0625 1.359375q0.28125 -0.359375 0.578125 -0.640625q0.3125 -0.296875 0.65625 -0.5q0.359375 -0.203125 0.765625 -0.3125q0.421875 -0.109375 0.921875 -0.109375q0.828125 0 1.453125 0.328125q0.640625 0.328125 1.078125 0.9375q0.4375 0.59375 0.65625 1.46875q0.234375 0.859375 0.234375 1.921875zm-2.328125 0.09375q0 -0.765625 -0.109375 -1.296875q-0.109375 -0.546875 -0.328125 -0.890625q-0.203125 -0.34375 -0.5 -0.5q-0.28125 -0.15625 -0.671875 -0.15625q-0.5625 0 -1.078125 0.453125q-0.515625 0.453125 -1.09375 1.234375l0 4.046875q0.265625 0.09375 0.65625 0.171875q0.390625 0.0625 0.78125 0.0625q0.53125 0 0.96875 -0.21875q0.4375 -0.21875 0.734375 -0.625q0.3125 -0.40625 0.46875 -0.984375q0.171875 -0.578125 0.171875 -1.296875zm11.897919 4.609375q-0.609375 0.140625 -1.21875 0.21875q-0.609375 0.078125 -1.15625 0.078125q-0.90625 0 -1.578125 -0.1875q-0.65625 -0.1875 -1.09375 -0.578125q-0.421875 -0.390625 -0.625 -1.0q-0.203125 -0.609375 -0.203125 -1.4375l0 -4.53125l-2.5 0l0 -1.71875l2.5 0l0 -2.375l2.265625 -0.59375l0 2.96875l3.609375 0l0 1.71875l-3.609375 0l0 4.359375q0 0.796875 0.359375 1.203125q0.375 0.40625 1.234375 0.40625q0.546875 0 1.0625 -0.09375q0.515625 -0.09375 0.953125 -0.21875l0 1.78125z" fill-rule="nonzero"/><path fill="#000000" d="m92.9646 301.7063l0.984375 -1.015625l6.125 5.109375l-6.125 5.109375l-0.984375 -1.0l4.96875 -4.09375l-4.96875 -4.109375z" fill-rule="nonzero"/></g></svg>